<mxfile host="app.diagrams.net" agent="Mozilla/5.0 (Windows NT 10.0; Win64; x64; rv:135.0) Gecko/20100101 Firefox/135.0" version="26.0.16">
  <diagram id="f106602c-feb2-e66a-4537-3a34d633f6aa" name="Page-1">
    <mxGraphModel dx="1878" dy="1006" grid="1" gridSize="10" guides="1" tooltips="1" connect="0" arrows="0" fold="1" page="1" pageScale="1" pageWidth="1169" pageHeight="827" background="none" math="0" shadow="0">
      <root>
        <mxCell id="0" />
        <mxCell id="1" parent="0" />
        <mxCell id="14" value="&lt;b&gt;Google &lt;/b&gt;Cloud Platform" style="fillColor=#F6F6F6;strokeColor=none;shadow=0;gradientColor=none;fontSize=14;align=left;spacing=10;fontColor=#717171;9E9E9E;verticalAlign=top;spacingTop=-4;fontStyle=0;spacingLeft=40;html=1;" parent="1" vertex="1">
          <mxGeometry x="840" y="100" width="550" height="590" as="geometry" />
        </mxCell>
        <mxCell id="15" value="" style="shape=mxgraph.gcp2.google_cloud_platform;fillColor=#F6F6F6;strokeColor=none;shadow=0;gradientColor=none;" parent="14" vertex="1">
          <mxGeometry width="23" height="20" relative="1" as="geometry">
            <mxPoint x="20" y="10" as="offset" />
          </mxGeometry>
        </mxCell>
        <mxCell id="_5zqBMzRXzk_g5fNgVcW-442" value="" style="strokeColor=#dddddd;shadow=1;strokeWidth=1;rounded=1;absoluteArcSize=1;arcSize=2;" parent="14" vertex="1">
          <mxGeometry x="358.2051282051282" y="330" width="177.6923076923077" height="60" as="geometry" />
        </mxCell>
        <mxCell id="_5zqBMzRXzk_g5fNgVcW-444" value="" style="strokeColor=#dddddd;shadow=1;strokeWidth=1;rounded=1;absoluteArcSize=1;arcSize=2;" parent="14" vertex="1">
          <mxGeometry x="358.2051282051282" y="400" width="177.6923076923077" height="60" as="geometry" />
        </mxCell>
        <mxCell id="8rjDxc2SI9L2Ybvgmmq--414" value="Chronicle" style="sketch=0;html=1;verticalAlign=top;labelPosition=center;verticalLabelPosition=bottom;align=center;spacingTop=-6;fontSize=11;fontStyle=1;fontColor=#999999;shape=image;aspect=fixed;imageAspect=0;image=data:image/svg+xml,PHN2ZyB4bWxucz0iaHR0cDovL3d3dy53My5vcmcvMjAwMC9zdmciIGlkPSJzdmc5NjI2MCIgdmVyc2lvbj0iMS4xIiB2aWV3Qm94PSIwIDAgMTE3Ljg5NTk1IDE1Mi4yMDc1MyIgaGVpZ2h0PSIxNTIuMjA3NTNtbSIgd2lkdGg9IjExNy44OTU5NW1tIj4mI3hhOyAgJiN4YTsgIDxkZWZzIGlkPSJkZWZzOTYyNTciLz4mI3hhOyAgPGcgdHJhbnNmb3JtPSJ0cmFuc2xhdGUoLTQ1LjI3MzMxNywtNzEuNTI1NTk3KSIgaWQ9ImxheWVyMSI+JiN4YTsgICAgPHBhdGggaWQ9InJlY3Q5NjM3OCIgZD0iTSA0NS4yNzMzMTcsNzEuNTI1NTk3IEggMTYzLjE2NTA2IFYgMTAxLjg3MzMzIEggNDUuMjczMzE3IFoiIHN0eWxlPSJjb2xvcjojMDAwMDAwO29wYWNpdHk6MTtmaWxsOiM0Mjg1ZjQ7ZmlsbC1vcGFjaXR5OjE7c3Ryb2tlLXdpZHRoOjEzO3N0cm9rZS1saW5lam9pbjpyb3VuZDstaW5rc2NhcGUtc3Ryb2tlOm5vbmUiLz4mI3hhOyAgICA8cGF0aCBpZD0icGF0aDk2NTAxIiBkPSJtIDQ1LjI3MzMxNywxNjUuNTIwMjEgdiAtNjMuNjQ2ODggbCAzMC4zOTQxNjgsMTguOTU4NDggdiAyNS41MTQ2NiB6IiBzdHlsZT0iY29sb3I6IzAwMDAwMDtvcGFjaXR5OjE7ZmlsbDojMzRhODUzO2ZpbGwtb3BhY2l0eToxO3N0cm9rZS13aWR0aDowLjI2NDU4M3B4Oy1pbmtzY2FwZS1zdHJva2U6bm9uZSIvPiYjeGE7ICAgIDxwYXRoIGlkPSJwYXRoOTY1MDMiIGQ9Im0gNTIuMTI1NDc2LDE5MS4xNjM5NiBjIC00Ljc5NDMxOCwtMi45NzM0IC02Ljg1MjE1OSwtNi40NjQyNiAtNi44NTIxNTksLTExLjUyNTMyIHYgLTE0LjExODQzIGwgMzAuMzk0MTY4LC0xOS4xNzM3NCB2IDU5LjUxMTAyIHoiIHN0eWxlPSJjb2xvcjojMDAwMDAwO29wYWNpdHk6MTtmaWxsOiNmYmJjMDU7ZmlsbC1vcGFjaXR5OjE7c3Ryb2tlLXdpZHRoOjAuMjY0NTgzcHg7LWlua3NjYXBlLXN0cm9rZTpub25lIi8+JiN4YTsgICAgPHBhdGggaWQ9InBhdGg5NjUwNSIgZD0ibSAxNjMuMTY1MDYsMTUxLjA5ODI4IHYgMjguMzQ3MDIgYyAwLjEwNTA0LDQuOTY5NjkgLTEuNzU1MzksOC4zNDE2IC01Ljc3MDA3LDExLjA5NTM2IGwgLTUzLjA0MjQsMzMuMTkyNDcgLTI4LjY4NTEwNSwtMTcuODc1NjQgeiIgc3R5bGU9ImNvbG9yOiMwMDAwMDA7b3BhY2l0eToxO2ZpbGw6I2VhNDMzNTtmaWxsLW9wYWNpdHk6MTtzdHJva2Utd2lkdGg6MC4yNjQ1ODNweDstaW5rc2NhcGUtc3Ryb2tlOm5vbmUiLz4mI3hhOyAgPC9nPiYjeGE7PC9zdmc+;" vertex="1" parent="14">
          <mxGeometry x="467.5" y="10" width="33" height="42" as="geometry" />
        </mxCell>
        <mxCell id="400" value="" style="strokeColor=#dddddd;fillColor=#ffffff;shadow=1;strokeWidth=1;rounded=1;absoluteArcSize=1;arcSize=2;fontSize=17;fontColor=#000000;align=right;html=1;" parent="14" vertex="1">
          <mxGeometry x="27.499999999999996" y="240.5" width="137.5" height="44" as="geometry" />
        </mxCell>
        <mxCell id="402" value="" style="strokeColor=#dddddd;fillColor=#ffffff;shadow=1;strokeWidth=1;rounded=1;absoluteArcSize=1;arcSize=2;fontSize=17;fontColor=#000000;align=right;html=1;" parent="14" vertex="1">
          <mxGeometry x="120" y="110" width="150" height="60" as="geometry" />
        </mxCell>
        <mxCell id="412" style="edgeStyle=elbowEdgeStyle;rounded=0;elbow=vertical;html=1;startArrow=blockThin;startFill=1;endArrow=blockThin;endFill=1;jettySize=auto;orthogonalLoop=1;strokeWidth=2;fontSize=10;fontColor=#999999;dashed=0;strokeColor=#4284F3;labelBackgroundColor=none;endSize=4;startSize=4;" parent="14" source="400" target="402" edge="1">
          <mxGeometry relative="1" as="geometry" />
        </mxCell>
        <mxCell id="413" style="edgeStyle=orthogonalEdgeStyle;rounded=0;elbow=vertical;html=1;startArrow=none;startFill=1;endArrow=blockThin;endFill=1;jettySize=auto;orthogonalLoop=1;strokeWidth=2;fontSize=10;fontColor=#999999;dashed=0;strokeColor=#4284F3;labelBackgroundColor=none;endSize=4;startSize=4;" parent="14" source="402" target="_5zqBMzRXzk_g5fNgVcW-442" edge="1">
          <mxGeometry relative="1" as="geometry">
            <Array as="points">
              <mxPoint x="25" y="360" />
              <mxPoint x="90" y="360" />
            </Array>
          </mxGeometry>
        </mxCell>
        <mxCell id="414" style="edgeStyle=orthogonalEdgeStyle;rounded=0;elbow=vertical;html=1;startArrow=none;startFill=1;endArrow=blockThin;endFill=1;jettySize=auto;orthogonalLoop=1;strokeWidth=2;fontSize=10;fontColor=#999999;dashed=0;strokeColor=#4284F3;labelBackgroundColor=none;endSize=4;startSize=4;" parent="14" source="402" target="_5zqBMzRXzk_g5fNgVcW-444" edge="1">
          <mxGeometry relative="1" as="geometry">
            <Array as="points">
              <mxPoint x="25" y="430" />
              <mxPoint x="85" y="430" />
            </Array>
          </mxGeometry>
        </mxCell>
        <mxCell id="2" value="Hybrid Implementation of Wazuh/ELK and Google Chronicle" style="fillColor=#4DA1F5;strokeColor=none;shadow=1;gradientColor=none;fontSize=14;align=left;spacingLeft=50;fontColor=#ffffff;html=1;" parent="1" vertex="1">
          <mxGeometry x="150" y="40" width="1100" height="40" as="geometry" />
        </mxCell>
        <mxCell id="16" value="" style="rounded=1;absoluteArcSize=1;arcSize=2;html=1;strokeColor=none;gradientColor=none;shadow=0;dashed=0;strokeColor=none;fontSize=12;fontColor=#9E9E9E;align=left;verticalAlign=top;spacing=10;spacingTop=-4;fillColor=#E0E0E0;" parent="1" vertex="1">
          <mxGeometry x="34.5" y="740" width="1100" height="30" as="geometry" />
        </mxCell>
        <mxCell id="391" value="On-Premises " style="rounded=1;absoluteArcSize=1;arcSize=2;html=1;strokeColor=none;gradientColor=none;shadow=0;dashed=0;strokeColor=none;fontSize=12;fontColor=#9E9E9E;align=left;verticalAlign=top;spacing=10;spacingTop=-4;fillColor=#EFEBE9;whiteSpace=wrap;" parent="1" vertex="1">
          <mxGeometry x="80" y="100" width="640" height="590" as="geometry" />
        </mxCell>
        <mxCell id="408" style="edgeStyle=orthogonalEdgeStyle;rounded=0;elbow=vertical;html=1;startArrow=blockThin;startFill=1;endArrow=blockThin;endFill=1;jettySize=auto;orthogonalLoop=1;strokeWidth=2;fontSize=10;fontColor=#999999;dashed=0;strokeColor=#4284F3;labelBackgroundColor=none;endSize=4;startSize=4;" parent="1" source="392" edge="1">
          <mxGeometry relative="1" as="geometry">
            <Array as="points">
              <mxPoint x="220" y="270" />
              <mxPoint x="220" y="362" />
            </Array>
            <mxPoint x="245" y="362" as="targetPoint" />
          </mxGeometry>
        </mxCell>
        <mxCell id="392" value="Local-Compute" style="strokeColor=#dddddd;fillColor=#ffffff;shadow=1;strokeWidth=1;rounded=1;absoluteArcSize=1;arcSize=2;labelPosition=center;verticalLabelPosition=middle;align=center;verticalAlign=bottom;spacingLeft=0;fontColor=#999999;fontSize=12;whiteSpace=wrap;spacingBottom=2;html=1;" parent="1" vertex="1">
          <mxGeometry x="90" y="220" width="70" height="100" as="geometry" />
        </mxCell>
        <mxCell id="393" value="" style="dashed=0;html=1;fillColor=#757575;strokeColor=none;shape=mxgraph.gcp2.compute_engine_icon;part=1;" parent="392" vertex="1">
          <mxGeometry x="0.5" width="50" height="44.5" relative="1" as="geometry">
            <mxPoint x="-25" y="12.75" as="offset" />
          </mxGeometry>
        </mxCell>
        <mxCell id="409" style="edgeStyle=orthogonalEdgeStyle;rounded=0;elbow=vertical;html=1;startArrow=blockThin;startFill=1;endArrow=blockThin;endFill=1;jettySize=auto;orthogonalLoop=1;strokeWidth=2;fontSize=10;fontColor=#999999;dashed=0;strokeColor=#4284F3;labelBackgroundColor=none;endSize=4;startSize=4;exitX=1.048;exitY=0.507;exitDx=0;exitDy=0;exitPerimeter=0;" parent="1" source="8rjDxc2SI9L2Ybvgmmq--417" target="8rjDxc2SI9L2Ybvgmmq--421" edge="1">
          <mxGeometry relative="1" as="geometry">
            <Array as="points">
              <mxPoint x="220" y="443" />
              <mxPoint x="220" y="362" />
            </Array>
            <mxPoint x="175" y="443" as="sourcePoint" />
            <mxPoint x="245" y="362" as="targetPoint" />
          </mxGeometry>
        </mxCell>
        <mxCell id="8rjDxc2SI9L2Ybvgmmq--415" value="" style="shape=image;verticalLabelPosition=bottom;labelBackgroundColor=default;verticalAlign=top;aspect=fixed;imageAspect=0;image=data:image/png,iVBORw0KGgoAAAANSUhEUgAAASkAAAEqCAYAAABJDaYsAAAACXBIWXMAAAsTAAALEwEAmpwYAAAgAElEQVR4nO3dd4BcZb3/8fc507bXbE0jpG8ahBYgdKQEBKSpqFcEr/VauSIXy08R9IIioqKCCIqgNAkSEhMICSEkkJCe7G42yZZkd2e2t5ndnXLK749NvJSQ7MzOnGnf1x/+EZyZJ5kzn/Ocp3wfxTRNEyGESFBqvBsghBDHIiElhEhoElJCiIQmISWESGgSUkKIhCYhJYRIaBJSQoiEJiElhEhoElJCiIQmISWESGgSUkKIhCYhJYRIaBJSQoiEJiElhEhoElJCiIQmISWESGgSUkKIhCYhJYRIaBJSQoiEJiElhEhoElJCiIQmISWESGgSUkKIhCYhJYRIaBJSQoiEJiElhEhoElJCiIQmISWESGgSUkKIhCYhJYRIaBJSQoiEJiFlodV17fFugohQS98wQ0Et3s1ISxJSFunza/xg6U72tA3EuykiAq/tbOafuz3xbkZakpCySEOnl14Tnt/UGO+miDA19wyyqq6dn7zdFO+mpCUJKYt4ur3UBXVW1nWw41BPvJsjRkk3YWtDB38/NEBtUx99AXnks5qElAV0wNPlg5DBpoEgq3Y04wvq8W6WGAV/UOOxHR5UFcBke3NvvJuUdiSkLHCoy8eyA904VRhnV7hjTwf73XKxJ4P1+ztYdqCbcpsKTpVNBzrj3aS0IyFlgY5eHy95fBSpKk5FgcEAy3e1MiS9qYSmmXD58loKnLaRP7CpHPT0EdDN+DYszUhIxVjIMKn1DEBIR1VG/qzcofKDza3saJaxqUT2+v4O6B4kyzbyxRWosKNriGp3X5xbll4kpGIsENJ5vbkfDl/oAKqigGLy0zca4tgycSwm8OqOQ+Cy/fvPMhWFt31B6lvk5mIlCakY8wdC/KWhh7J3hRRApV1l+W4Pbzd1x6ll4lherXbzSF0XJbb/+4koALrJ7pZe+oZDcWtbupGQirHd7n4YDGJTlA/+xxwHD6+pY0CmtRNKvz/EhloPfQEdx/u+tmybwtudw3T7/PFpXBqSkIqxP25tBvvR/5lLVJU1Hi/bGrssbpU4lpZOL39t6KPI9sEbS46i8Gr3EF4JKctISMVQ0IS/72mn/ENCyqHAIb/G2ho3/X7pTSWCoG6yem87jf3DZKgfDCmbAgyHqGsfQDNlls8KElIxtLmp5z2zekdTYVO5a6uHt/a6kUs+/vZ5+vjmmnrKHbYP/f/k2BXu29KKT8alLCEhFUO7DnWD88MvdgBFAVR4bHsrPr9c9PH2x80HQeWYN5Zcm8q21gHa+oasa1gak5CKoYbWvvcsPfgwFXaV5+p7eLtexqbiqXs4xK+3uyk7Ri8KDs/yYbK+UWZmrSAhFSP13YPUdvrIOtYt+TAFyFMVLllejYxMxc9TG+pBM0ZzX8FhV3l+n9xUrCAhFSM7GzpY0esn72hLD44ix6ZA1xBPv3Mwxi0TR1Pb7uX5HS3kOkf3kxhnU3mlrhNNBhJjTkIqBoY1g4PtA6AZxxzb+IAMO6t2tNA9GIxZ28TR7WroYL0vRPYovzBFAQyDN2TDccxJSMVAl9fPto7BsP91y1SFJ1sHWLOnRWb6LNTaO8SKmjYwjPC+MoeNN2paY9UscZiEVAz4BgOs6BxiXFjdqMNj7LrBP/e04ZaZI0sYwNaGTp5o6KPCFt7PQbEp7G/tp0eWIsSUhFSUmcDBzgF6+v0jZVnCVGFXeaqxl631HdKbssDAUJCfvH2QTJtCuN9WkQo7vUH2evpj0jYxQkIqyoYCGi/v6zr2QptjUIBcVeG7bzTi7pXeVKy909jFlpYBCkYzpfc+DkWhelijvdsbg5aJIySkomxgKMhDdZ2UfshWmNHItSns7RjkhZ0tUWyZeD8duGRFLXkONexeFBz+8WgGje0DDGlGdBsn/k1CKsp2e/pgMIg9so7Uv41zqXx9fSNBeeaLmbX7O6DDN7L8I0JZqsKKg314egej2DLxbhJSUfZ0dTscZ8XyaDgVBYaC3LeyOgqtEu+nm7D0rQbIsI/pffJtCq+1+mhul3GpWJGQirLH67sZN4Y787vlOG2srW2nrl3GPKJt3V4PK5r7GRfmjN77KQCKydbWfvzyyBcTElJRdKjPD91DOCMcNH+/HFVhTX+AzfvakMs/evr9IdbVuGka1nBG4avKsKm8cqiPYEg2NcWChFQUvVLtHtWG4tFSgSxMHt3WSmO7HM8eLW09g/yxvpfiKH1XBarCKy0D+IMSUrEgIRUlAcNk817PcUuzhKtAVXijzcsL25oJyOPEmPlDOs9tPYSn348rSj1eVQECIZZVt0Xl/cR7SUhFSVOXj6aBADnR60j92ziXjdt3emjrl3VTY1XfPsAPNrccs6hdJPKcNu54pzmq7ylGSEhFSXOXlx1DGlkRrDI/HqeigC/A7984EPX3TjePvnNoZI9elL+mbJtKV0s/HUOyOTzaJKSipLPbR2dAi+aQ1HuUO1TufauZA93Sm4pUX0DnV1tbjlvULhLK4f/ZerA36u+d7iSkoqDd62dDUw+YZkQrl0dDBXAoPL5+f4w+IfX9YlU1GGbMbiQ4bWypb4/Rm6cvCakoaOvx8VDzACUxu/pHFDhUVu/rZNtBKVsbrroOL5sOdJLjiOElryo0tQ3gC+qx+4w0JCE1RoYJTR1e8AVxxGA86t2yFIXN3gArdzTjk+nusOxq6GT1QJCcGH5HRSps7R6mulUe+aJJQmqM/CGdDc39EVc9CFeRqvCHui5au32WfF4qaOkd4oU9npgMmL+bS1HY6QvR0NITuw9JQxJSYxQIadxf3xO1hYHHk6EqNPf7eWxjI4PyWHFcumnyZq2Hp+t7qRzjFpjjUQBMk+2t/XRJCeiokZAao9beQYze6G2FGY0Kp437trSyu1nu2MfjHQ7xyE4PGbEci3qXPJvCW51D9Mox7FEjITVGz+3yAMRsVu9oFAC7wj3r6i381OS0saGLtS19FFrU081SFN7sHsYrIRU1ElJjdNe2Vkosuku/W4Vd5eW6Tra1SomQY7liRS359siK2kVCVYCgxo7WPkKGFAOLBgmpMajt8ELPEA4LH/WOUABcKve/vEumvD/E0t1u6PSN+piqaClwqHx3SyteWX0eFRJSY7D1YE/UNxSHo0RVWds1xKYDHXFrQ6Ly6wZrdraMuahdJDJVha4OH4d6ZAY2GiSkxmBfSw+MoZb5WDkU8Pg1Xq/x0CfHKr3Hpn3trDzUF7UChOFQAFRY1yCLbqNBQipC3UMhGtoGUOLwqPduZTaVu3e3s7upK67tSCT9fo21NR4ODIUiOlYsGrLsNv6+T76TaJCQitCWhg6Wdg1TEueQsh0+7vtnGxoZkN4UAI1tffy4rouSsZ6GMQb5NoVNB7oYDEkNsLGSkIqAbsIhTx9DAX3Mp8JEQ4Vd5V8NPWyV3hT+kM6r1R4YjP02pWM58snr9suG47GSkIpAly/Ang6ftYujjkEB8uwqF75UTSDNp733tw9w++YWyuKwLOQDnDberPbEuxVJLwG+yeTTP+hnQ+cwBXF+1Hu3HJsCXUOsTPMfxZ+2NIOmY4tjL+oIu03hQPsA7b5AvJuS1CSkItDdN8jWrkEyEyikAMi089yGAwz403NsqnsoyINvNlERx2Uh71agwDZfiL0eWXA7FhJSYfJrOm80xrbAXaTKVYWn2gZ5eXtzWh6B9fDrdeC0bnX58TgUhfphjS6pWDEmElJhGhwO8WBNB4VxXB/1YVQF0A3+VdOGpy+9ygzv6/Cydm9HbIvahUkB0A3qPP14A1L/K1KJ840miYM9g3g6fIn3qHdYuU3lyYN97E+zwms1TZ2s7g+Qk2DfS75NYenBfjy9g/FuStKSkArTizXtEOO6RGOhKlAAXPByLe7e9OhN1Xd4+cM7zThMM+Eu6GxVYUu7j4Nt/aT3vGvkEu07TXhPHegiP4EeKY4my6ZA7zD/2NkS76bEnG6abKvvYFWrl5JEvXmosKmlH39INoJHIkG/1cQ0ENRpaO0nK8EeKY6mJMPG19c3Mqyl9v17yK/x8A4PrkRYVfshcuwq/zrUR0iTkIqEhFQY1u3vACPxZvWOxqEoMBjkrxtT+wisjQ2dvNbcR1Gi9qKAHEVho8fLgJRuiUjifrMJ6LUdh8CVGGtwRiPXZeOJTYeobffGuykxETLhsr/toDSBlh0cjaoAms6zu9zxbkpSkpAapZZ+P4e6ra1lPlY5qsIGX4jN+zwpuW5qVbUbQhr2BFhdfjxFThu3vdMc72YkJQmpUWrq9LJ3SCMv8X8P/6YATtPkmZ1uGjsG4t2cqAqZsHpnS9L0bDNUBdp9tAxI7fNwWV+2MEl19fioHdaoSKKeFECxTeFfHUM88GodcyYWoiRBr+N4VAXcfcOsauqjNIHHoj7AobLlYA8T5lXGuyVJRUJqFPr9Gjube0E3UNQk+lEw0puqtCk8tLcDqlOobIiqUGpXE6JUzqjZVbbXd3CNhFRYJKRGwdPjY9mhPgriUIo2Wirtqnzb8aYqNLYN0OvXKIxD7fVklVzdgjhxd/vY2jWcsFthRHIYp8LbvX72yKGuYZGQOg6/Zhw+2y451keJxOVQFPYPhWhslZAKh4TUcQSCGs809JCbgFUPRHI5cpPb2tpPh1cK4Y2W/PKOY2A4yBaPl+wUmBUT8VegKmzoHKJPjmEfNQmp41h7oBM0HRmOEtGQoShs7fXT6x2Od1OShoTUcXxvUzN5juRYMCgS35EtMpsO9RLQU3EfQPRJSB2Dxxugpaln5JADIaKk2K7yja2t+GTD8ahISB3D1kM9kOC1o0TycakKdA9T3ym1z0dDfoHHUNPcAzKrJ2LBrrC6Xg5zHQ35BX6IgGHS6O5P6FLBInnl2VX+XNcZ72YkBfkFfoitjV2s7/BRLP9CIgaybQr7m3rp9cspMscjP8EP0djaS/WQhlPWR4kYUABs8Gptep84PRoSUkfR5w+xv8ObNKWCRZJy2ti8ty3erUh4ElJH0T8Y5O3OoZFTV4SIEZeqUN/lo7lfVp8fi4TU+/QOB/ndun2sah2gQJaZixjKUxS2eEPUpdlBruGSkHoXE3jk9f3ct6mFSlkfJWLMoUCLX2PVjmaae+SE4w8jv8TDTGDp5kbu2NBERaYUJBPWqLAp/KK2k/9dWY0vIDN9RyMhddj6uja++Oo+Cm0KMqEnrKIAFXaV39V2cvsLO+Qo9qOQkGIkoM57difDAV2qbwrLHQmq3+9w84Nlu9FMiap3S/uQqnH3898r96KGNPJlNk/EiQKUZTq4Z2sLj7y+j+GQHMl+RFqHlMcb4PZ/7mRz5yDlsv1FxJlNgULT5Ccbm1i2oxldOlRAGodUwIDfrqpmefOAzOSJhJGpKgwFdT65opble+RYdgDFNNPvAbjfH+Lel3fzs21uKlw2WVUuEk7ANOke0ln/xUUsnloS7+bEVdp1IQKawbItTfxsdzvlTgkokZhcikJOpo1vPL+D7YfS+3SZtAuppzc38pnVByhRTKlbLhJanqqwbSjET1dUU+fpi3dz4iatQmp9Qzc3r6yjyDRxyGIokQQqVIXnWwf4n+U19KRpueG0GZN6q6GLG/62lb6QTr50oUSScQd1yM7Ae9v55LjSa0dEWvSk9nr6+fWre2kNSkCJ5FTptIFvmB8u25V2PaqUD6lOn58HXq3l6UN9VMpiTZHEyl12HtjdxqPr9jGQRhU9Uz6kvvLMdh450EOFU87OE8lNBcYp8N23D/HclibS5dS+lA2poG5w50u7eH5fJxU2RZYaiJTgVBTKFIXPv1TD/atr490cS6TkwHlAM/jrxnr+c80ByhjZbiBEKjEBz6DGmltOZfGMchwpPNaakj2pNbUe7n6zkXzTlIASKUkBCjJtfHbpHjYf6Ih3c2Iq5UJq/YEOvvFyNe0BjewUvrsIkaUqtA6HuGN5NduauuPdnJhJqce91v5hJtzzGnmZKjkSUCJNuDUDMp3su+V0ppfnx7s5UZcyPanGLh83P/kOuBQJKJFWKu0qruEgM57YwsEUrJWeEiHVPuDnodfqWN3uo8KeEn8lIcJSbFehf5ifrthDS99wvJsTVUn/iw7pBg+ureP+PW2Uq7LUQKSvCqeNR+q6+O3qWnqGQ/FuTtQkdUgZwJ3LdvOztw5RblelqoFIawpQble5d5ube1fspjdFts8kbUjpJjy/5SC/WN9EZaY9ef8iQkSRClS4bNy3uYXfr60jlALTYkk5u2cAa/e08pVlNXQFQmRI2RUh3sMEPEGDJ5fM4ONnTceexD+RpOyA1Lb0cscrdewfloAS4mgUoNih8B9r6nl1d0u8mzMmSdeTqm3to+rRTdg1jVKZyRPimPyGSY9msvz6eSw5eVK8mxORpPqVd3gDXPX8TmwSUEKMSoaqUGhXuGJlHa/vbYt3cyKSNL/0Tl+Q+1ZWc6DdS5kElBCjlqkqZA2HuOD5Xezx9Me7OWFLil97QDd57u167t/VRrlL6kIJEa4CmwL+EP/vn7to6E6uVekJH1IBzeB3r9Xw1dfqKbMpid9gIRJUpUPlhZYBvvncNg50euPdnFFL+IHzlbtaufzpHZQ7ZbGmSDxdmkE4SybtQJFNwR7HWWl30OD2BWV87SNVTCjMils7Rivhj51wOVXItDMY0smV4lAigbj9OtfMGEeuw4bJ8e/1CiMD2dvdXg75/HELqgqnyn2bWiktyeO2C2bEpQ3hSPiQOn9WBSuuMVjyz2q8gRCVcRo0D5kmnZpBJIWlXQ6VItlXmDJGjkDXuGPxFH54eRWafvyLQlEUMh02/vzOQR7b301JnK4GzYSOoM5/nlLJx0+aEJc2hCvhH/eO2NHcy21Ld7Kmc9DyoAqZJlMLs7iyqpzxuS5Co7goYeTCDIZ0Vu5xs6x9kHIZU0t63YZJpt3G41fM5pqFo193ZAKrajxc/qdNlOe64jJ0oZnQYZrcv2giX7ioipwkOZwkaUIKoNrTz5ee28Gb7d6Rc8gsYgIe4L7TJvD1S+fiCvOxc3/7AL9ZvZff7O2kwq5KjypJ9ekmM3Kc3Hv5LM6rqsRlG90tJ2SYvLyjmZuW15CtG7ji8JinmybtQxp/vqqKa0+fQm6SBBSA7Uc/+tGP4t2I0SrNzeCUyny6un1s6h0m16LbkQLkAEv3d5Nr6MyoKCA7jC+5OMfF/ImFBHwB1rT0kyvrvJLOsG7gReXZGxZwYVUl9lFee4YJS7cd5Cer99Ed0C27Zt9NM0w6FJVHPzKNTy2eTlaSXX9J1ZM6Yn+Hl+8t3clzTb1UZlg3rGYAbbrJnSdVcNtlcynKcoT1+qBu8Nmnt/H0Tjfjshw4pUuV8EzAoxngsLPz5lOZP6k4rNc//nYjX3plL3bdpCAOAeU1TLxBg2euruKa06bgTMLJp6QMKYDOoRC/WrmHn77TQoXLjlU9aMOEtqDOVScW86tr5jFlXE5Yrw8aBo+/Wc+P32igL6RTKOsqEtaRgLpuUgF3XTmXqorR1w/XDJM/bqjnKy/soSTfhSMOX7NHN6jKdfHQVfM4b2aZ9Q2IkqQNKYCBoM7dL2zj5zWdlKuKpYOR7oDOuRPz+ftNp1KZnxnWawO6wfJtB/nOawfoGQ6RJUGVkNxBnc/NHMedl81hWmnuqF83HNJ5+u1GbnltP6UQlzIpbs2gLNfFC9fO56xppdY3IIqSOqQAuoeCPL62ju9sOEi502ZtUAV1Pjm1mB9fMYfpZXlhvTZkmGyu72Txo5soctnISMJueCpz+zVumFHCr687ifK8jFG/LqSbPLZ+P99d34ii6XG5AblDBmeVZvPLK+ZwxtQSyz8/2pI+pAC8fo1H1u3jv99ooNRhs+zO9e7HgbuvnMesivCCCuCt/e2c9dwuGApQ4bDJzF+cHVlH9MX55fzwsjlUFoTXS/7pK7V8b0MjRYws3LSaO6hzdlkOD127gAUTCi3//FhIiZA64vH1+7nllf0UqdZdICbgCY2ce1b92VOpiuDCONDh5fYXd7G0uU+WKMSRZkIH8KszJ/H5C2eR7Rj9DG5AM/jJyhruWVdPWbbT8pOzTcAT0PlqVQnfv+YkynNc1jYghlIqpACeeKuBz762n5ygTp6FV4pPNxmw23jnM6dw6pRxYb++qXuQX6+u5YEdHktnLMUIzTTpGNb569VVXHPaCeSEEVADwyEefWM/t21solyxdmwUDk/mhAzumF/K15fMpyI3dQIKkqAKQrg+tWgKS5fMoiDLQZ9uXf7m2BRsmsY3X9zFxv3taGF+9AnF2Xzvyvl8aX4Fbr8+ip1gIlqCh9cR/eWjs/jEmVPDCqihoM4f1tZx28YmShTiE1CawfdOqeS2K1IvoCAFe1Iw0vVducfNkn/sxK6blFrYo2rTTSZnOfjbDQtYNDX8WZXe4RB/fmMf317TQHGmLS6rk9NJn24ypBn849q5fHThZBxhpsyXnt7KwzXtlKpYvmFYN6E9oHP/uSfwhQtnkeNKzR54SobUEVta+rj5yXeoHgxRaeE8sM8wGfDr/OmqKm45e2rYrw/oJv/Y3Mhtr+1nKKTLsfEx4tYMTinI5MGr53J2mNP0A/4Qdy7bzUNbWijPclj+SOI3THoMeOzSGXz67GlxWYdllZQOKYCth3r44bI9rGjzWjoobZjQNqyx/KaTOb+qgqwwHiGOWLGjmSteqiZHMywdX0sH7pDB9IIMnrp+AaedEN4YYpcvwK9W1XDPtlYqnNbPyA4YJn6nnd8uPoEvnpf4pVbGKuVDCqDG3cevVtXwx/peKh3W3fMCpkm3qvLXi6dz/elTyAhzz5QJrK/1cMVLNfh8/riVqUk17pDOFePzuWtJFQsnh7fNpWcwwM+X7+F/qzsoU7B8Fq9XNynMtPPw5bO5dN54HKPc5JzM0iKkAPZ1ePncM9vY6PFS4bLu7jdomLhsKj88ZwpfOn9mRBf1hgMdfOGlPdT0DFsasqnmyDT9ZRPy+eXH5jM7jG0uACHg809s5om6Tsod1leK7dBNNKeNZVfPZcncStQ0Ga9Mm5CCkYv0qkfe5OXmAcpsimV3wZA5stfwK2dM5FcfOynswVmAhu4h7v7nDh5v6KXCIWupwmWa4AnqfGdBOXdctYCizPA2h3d4/dz65Du8fKifigzrH/HcusnUDDvPfvYMFo4PL1yTXVKVahkrBbhweikFgQDLPF6ysGZNi02BXKeNNY29qMEQ88cXkOkMbyamMMvBadNK0ft8rG71km1TLdtUneyOTNPfdep4vrlkPsVhVq841O3j3hXV/LWplwqntTeIkePSdT4xKZ9fXruAUyamxirycKRVSAHkuOzMnVhIpj/I8tYBsi0s65vttLG8pR/XcIB5EwrJCjOocl12TppcTKEe4iW3lyysX5eTbHTTpF2He86YyNcumRN2eZ3mviF+vqKa39R0Wt6DNQGPbvK5qUXcuWROymxzCVdaPe69W1A3uOdfNdy19gCluS7L9vtpJnQYJrfOGMcvrz+ZvIzwfjQA3oDG71+r5btvNFGSYcMhXaqjCpkmnQGD339kGjefM52MMGdYe/0a1/1hPWt7hqmwWVuj3gQ8fp1Lxufx2GdOY3yYlTZSSdqG1BH3v1bH/2xoJEM3LKuaaABtAQ2Kc+j60pkUZ49+l/27Pbf1EDe+tIcsiEtBtUTmNUy8KDx9ZRU3njY57IA50Only89uZ7XHa3kPSjNNOjST/6wq47efPDXtiyOm/VTRty6cyaMXT6c8w0G/YU1eq0Clyw49g3zuyS00dfkiep8bTpnEsx+dw9QcJ24tgmNsUlSHblKa5eDJJbP4eAQBtbetnx+/uJPVHi+VFgdU0DTpUBR+cvoEfnHtgrQPKJCeFDCyg33lnlZuXVaNqRnWVlDQTT41MZ/vXTGH2ZUFEb3Hm/va+emqWlZ2WH+STqJxawYL8zO49/LZXFBVgS3MR+Fqdz/3LNvF31u9lj/i6Sa0GyYPnjuFzy2eRm4EQwGpSELqMAN4pcbD5X/ZQk6GjTwrg0ozuKQ8lwevP4lZYRbPO2LroV5ufHYbDb3+mM5AmYw8joR70aiMLPmIZbs8mkFFjpO/X7uAc6eXhv1ZjX3D3PTnt3m7a8jyR7yACd39AR68eg5fPmdqWizSHC0JqffZ2NDFV5/bzo6hEBUWzvx16iah/iDbbz+fk8aH36MCGNJNrvnDel5t91GmRn8dmAkEgUKXPazHEAXw6iaDQR1nDILqSI/01BwHz3x+MScWhT/IvK25hxv/+g71w5rlvdE23aTYofKry2dz06mTLf3sZCAhdRTbDvZw9/I9LPV4Lb1gvYbJtDwXD145h7NmlIX9qALQ2j/EY2v38cNt7qjvzG/TTT4+KZ+vnB/efjEFGA5p/PyVvbzRM0xRFHupI+uIDL44o5hvXT6HmWHUIj9ic2MXd62oYXm7j0qL97m4dZOLCjO57eIZXDZvvCzSPQoJqQ9R09LL7S9Xs7yl39KtKG7N4JzCDH5waRUXzamIaGajdzDA71/fx/c2N0e1CJvbF2LdFxdxboSF/d/c1845j78TtRXbRx7xvjWnjG98ZBaTi8M7uQfgzfpO7v5XNavaBi3fctSnm1TmOHnsmnmcPaNMZrE+hITUMbR5/VTc9zoYmqW73TsMk/EOG7+4sorrT5oY0XuEdIPfvnGAb79UQ1G+k4wx9qjcfp1PzyvnrzedOqb3ufWZbTy2o3XM1UcNoG1I46bZJfz2xoUUZjnDfo9trf185PG36Qnqlvag/n2WX9Ck4fbzOaE4R3pQxyDhfQzluRl0/8+F3DK7FI9mYlWhz1JVwavp3PDUdv6yqZGQEf7yAodN5VsXzOCJT55MicuOW498iUKHbrCoMpffXDMv4vc44r4r5nDVCYVjWjLhN03adJPvnjmJp25eFHZAmcDq2jbO/8smvBYHlAF4NJPrJuSz97bzmCIBdVxpty0mXJkOG4smF2EbCrCqzWvZNhq7oukaA28AABM+SURBVJDhUPnbgW6mu+xML8uLaMZnwfgCZhZl0uLpZ/ewRm6YPSrNBK+q8odLZjB3QvGY9wtmOe3MGpfFa/s66Q/pYa+WHzRMVIeN+xZP4duXVI36uPMjDBNe3+vh9uU1NA8GKbNwFs1kZFzv1hnF/Oya+Zw4Lvzxs3QkITUKORkOTp5chCsQYkVDD7kRFLCLhE1RsJkmqw71UmjqLJxcHFF5jhNKcplfmceO+m72DoVGvbLeZGTdzs9OqeDGRVNxRWkSoTAnA7s/yIsH+8gJI/SDpsmgqvDwJTO56cwTyYzge1i2u4Xb/7WX3d4A5RZP83uGNf5rfgU/vmIulYXZln52MpPHvVEqznbx/Svn8fmF43EPhghZ9OiXpSoQ0vmvdY3c/a/qiN7DpsApk4t59ubTIdOFO6gzmoetIcNkXpaDS0+eHNX62Rl2lU8vnsYnJuWPjM2MwqBh0tUf5Mmr5vKJM6ZEFFCv7Wvn6hf3sM8boNzCRzzNHDls9CMzSrjn6vmUpfE+vEhISIXBqSo88vFTePSjVXQqI0sGrJChKpQp8OPXG7h96Q78mh7R+0wuzqH7m+fymRnjaNPNYwatCfQHDb57wTROjkF5kKIsJ3dcOQ80E+0YczcmI9P05ZkONnxtMTecPDHs2UoTeHF7Mxc/uY183aDYwoDymyY9wE/PO5EVnzsjog3l6U4e98KkALMq8zkpx8HGg734NMOSKgSqAjlOG6vcXoz+IRZMDL/UC4yMsS2eVkJ+UONld/+H1tTyaAaXTC7k3qvnj/pxrG0gwIA/OOrtHOW5Lia5FP6+v5ucD9mC4tEMPj4+l3uvmseZJ4Z/ZLgBvLCliS+/UodNNyw91CJgmvgUhT9cNI3PLZ5Gpt2aYYJUIyEVAYdNZWZlAVNzXTy+s40sm2JJKVcFyFIUVnq8ZA0OM2N8IbkRPIZlO+0smFxEpQrP7+0k533LKzTTZFBVeepj85lQmDWq9wzoJr9bXc2e1n7Onj76dVTTyvLobO/njY5Bct/Xw3FrBueX5/K/V80Luxb5Ec9ubuKzr+xD92sfeP9YMkzoDBr8/ao5XHfqFLKdElCRknVSY2AC62o9XPDEVlwO1bLHCMMcmSVaMiGPZV9cHPEzu2aY/GVjPZ//Zw25WXZyVeVwHSONp66cxY1nThv17NmG/R1c9cx2MhSFp6+fzzkzy0fdji1N3Zz59DYyh0cG9Q2gLahDloueb50X0RoogH9sb+b6F3ZTqEKmhT2oAcPE59N45hPzueG0E2SJwRjJmNQYKMD5syt489bTOaMoE7dFC6lUBSrsCisO9nLub9axv8Mb0fvYVYVbF09jxX+cwqwcJ27dxKMZfG5WCRfOmzjqgGro8vHLNfvoCWi4/SF+uXY/B7sHR92OU08o5sXLZuFVVYaNkTVQX5pbTts3zokooAKazu/X7eP6F3YzzmZtQLk1g9n5Gbz55UXcKAEVFfK4FwWTirI5qTyX2pY+9ngDlhTPU4Bcu0qNN0Cw28u0sjzG5UZWPG96WR7zy3LY2dyLVzf4+aWzmDPKTc5B3eCJ9ft5cFcblU4bOarClj4/J+XamTOxCNso/y3KC7MJdg2wttXLD04bz52Xz6EkJ/y/z3BI58V3mrhlTT3jMHFaHFAXlmbzwEfnsCjCrUPig+RxL0pMoLHTy9Q/b4b+YSotWkt1ZIvF1RW5/OTqBcyL8CQRAzjg6ePtxm4+uejEUZ9os+FAJ4uf2kqpafx7M3PINOlEYd2nTuHcMManWnqHWLGzmetPn0JRhI94D7xay7c3HqTYMHBZGVChkcfTfbeewfQIy+2Io5OQirLdrb1c9/xO9nf4KHfaLHuedmsGp+a5+NNnzmB+eeQrmQO6gWuUixx9IYNZD6yh2xek6H3jce2awaySHPZ8/bywPj+oGzgjWGSpmfDEhgPcurKOErtiWd33kVLQOrPLc3nxhpOYEeZZfuL4ZEwqyuaNL2T95xbxhdkltOnmqBZNRkOlXWWLN8BH/rSR9Qc6In6f0QYUwP2v1NLaO/yBgAIos6tUt/Zz14o9YX1+JAHlD+k8srqGW1fspcyuWhtQmsFX5pWx5uYzJKBiREIqBsryMvjBlfP5n5MraRvSwq5iGalKm0pXQOerS3fxSrU7pp+7bm8bz+xqpcj14Y+1RZl2nt3pZlNDV8zaMRTS+c3qWr66vokyp2rZga8m0Das8ZPTJvD9K+ZRnhfZeKA4PgmpGJlQkMltl87hawsr8QQNy4Kq3KZQ7Q3w9ZdrWLrtUEw+o61/mL+81UjtUOiYJWAyFIXqYY3nNjfR5QtEvR1DmsHDq2u5feOhw5VILSr5bI4cN/Xfp47n65fOoUICKqYkpGKoOMvBjz46jx+cNh7PYAjNoqQqt6m0DAW57qVqlu5ojup7Gya8Wu3m8YYeykex4bhcVbh/Tzsrd7dEvdTNw6tr+fb6JsptWNaDCpgmnmGNhy6ayvevnEdeFPc0iqOTgXML+HWDv22s59Y1Byg2TVwW3fH9hkmPDo9dNoNPLToRZxSqGKyta+PCx96hLNM+6mAYme1TqfnCoohOxHm/Ll+A/11Rzf3bW6nIsFu2FmnIMLE7VB68aDrXnX4iLotLDacr6UlZIMOm8qmzpvH3j0yn21DQLNyYPM4Ot7yyj6c2HmA4wo3JRwyGDD65Yi+5LltYPReHoqDoOp9ZupvhMZ4P2O4N8MS6Ou7f5bE0oIYNkz4UHl0ym5vOnCoBZSEJKYu4bAo3nDWNZ66YSYdmErQoqJyKQokCt6xt4Leraog0pkzgyfX7aO/wRbQHrsKusvVQLy+OYZzMb5j85KVd3PZWM+V2646cGtBNeh12Xr1hHlculNNcrCYhZSEbcO1pU3jxurl0qQrdYyjpGw6HqlBmmty+/iC/X7OXYAT5uOVgN7/a3EyhK/JLJifDzh82NlLtGQj7tV1DIX724g4eqm6nwqFG7XCJ43FrBj6XnX9dPYeL5k5AtglbT0LKYnZV4eqFk1n3iZOZnZdp2fHoNgUqMm187ZX9/PC5rfQOh0b9Wnf/MH9+fR97fUEyxzCelqcqvNE5yB9fq6VrcPSzfe1ePz/95w7ueqeVCpd1B2K4NYNLy3LYefPpctxUHElIxcm5M8v54w0LKMpxWRZUClCeYefePe08+cY+fEHtuK8ZDOo88eYBfre/h4ooHPlU7rDxYH0Py7Y0ERjF37tnKMgDK2t4YE971I7CGg13QOeyilweuGEh8yM8rFVEh8zuxdnm+i7+e3k16zt8lp37ppsj21buO3Mi1585jSlFR68ZdaBrkGWb6vn25paont8XMk06TfjN2Sdw9RknMjH/g+uMDKDa08+LG+v54XaPZceeH9kLefOJxXzn0tlUVcoq8niTkEoAe9x9fHvpLl51D1BpUXE0w4Q2w2RJcRanTi5gwZRxnHD49JL6Ti876zvY0tzHqu5hym3RHwPSTZN2A64uyeLkSYWcdGIJk8flEAjp1LX1s7O+k82tA7zZ56fCro75lJrRMBk5LOGWmeP44dXzmVwkhyUkAgmpBHGwb5ifv7yLh2o7LTuI1AT6DZMh3YSQAUcG8m0qOFSybQp5MTzCywR6DJOAbkJIH+niKf/3+fmqQrZFI+S6Ce0BnZ8unsxXL64i7xjbfYS1JKQSSPdwiO88s4XHD4//WLTmM+1ppkkHCj9eUM7tV51EhqyBSigSUgmmtW+YJ9/Yxx2bWqhwWrcWKF2FTJNOHR6+4ERuOntaVI/uEtEhIZWAunwB7ltZzc+3tlLuslu2JijdHNk29Oil0/n0mdE7/FREl4RUAvv9mjq+suaApUXc0kWXbhJUFV782HyuXjA+3s0RxyC3jgT2+fNn8sjF0+hURg4oENHh1gxOznfx0rUSUMlAelIJTjNMntpYz82v11MY0i09+SQVuTWDs4uz+NmSKs6ZURbv5ohRkJBKAoZp8sK2Q9ywvJZSw8QuORURt2awMD+Dxz+5kPnjo390vIgNedxLAqqicP0pk7mzqpQOi7bQpJp23eSCkmxe+PzZElBJRkIqidx41lQIWVeKOFUY5shizV9fdxKTC6TUb7KRkEoiCyrzmT2xAJ9FJyWninbd4NopRUwulm0uyUhCKsncefpEvIHjVy8Q/8fUDD5RVUqWyxHvpogISEglmY/OrWReZR4D0psalS7d5IqJBZw2rdSywxpEdElIJZmcTCc/OnMyPtOUsanjMIEgcH1VKZPG5cS7OSJCElJJxqbA3ElFnFacxZAs8DymoGkyN8vBzEnFcqEnMfnuktD4ohw+NrmAflmOcEzdBiwszGDBRFlykMwkpJJQttPG+QsmMDvXSUDW4n44v8Ynzp1OlkNqQyUzCakkddqUEi6bXEC3DKAfVdA0IT+Dy2eXx7spYowkpJKUXYHFVZUQHNuBn6mqK6jz41MmxLsZIgokpJLYJVUVgIKMn7+XYQKmyo1S4SAlSEglsRyHjYevmkObLO58j7aQzt2LJzGlJDfeTRFRICGV5K6ZV4FSmEVAulMAaCaQ6eDy2eVSaTNFyLeY5PIyndxVVUq3LEcAoEM3uGVCHuXFsngzVUhIJbkMh42LZ5SA3Ua6T/Qd+eufc0IhlfmZcW2LiB4JqRQwZ3IJ9yysoF1P795Ur2Hy0ZJszl8wKd5NEVEkIZUCcl02Tj2xhGynbWRMJk35NYOzpo3jhMKjHxsvkpOEVIqYO7mYSwpc9KbzCnS/zgVzZNlBqpGQShGVeRmcOaucUJou7vQbJhRmccZk2aeXaiSkUsh/XTQbVDXtBtBNoCeo8+r18+LdFBEDElIpJFOFrywcT3sovXpTg4bJgoo8TpVqBylJQirF3HzKBDCVtCqINxAy+M+qUrIypDxwKpKQSjGzyvO5ZU4JnjTpTYVME7KcnDW1BKdNLudUJN9qisnNcPCVRSeA054WY1OduskvF1Ywa2JRvJsiYkRCKgWVF+fw2Ql5Kb+4UzOh2GVn3uRiMmWfXsqSbzYFVRRkcd6JxaCk9thUj2lyfr6LuZOK490UEUMSUilIBc6uquTiAhfeFK6OoAV1Tp9ZRnmuK95NETEkIZWiZpTmcsmcCnwpWh3BMAFF4asXzop3U0SMSUilsEvmjYdAas7ytWkGn51XQbZdTvxMdRJSKWxBZT4zJhXSl2ID6CaAZvB5qWGeFiSkUtyfL5/FUIr1pto1g4umFDF3gqwwTwcSUilu3sRCLp82jo4U6U0ZgKEo/L9zp1CQ5Yx3c4QFJKRSXIbTzn/MLUPTSYnlCH26yZLyXCaMy4t3U4RFJKRSnF1VWDhlHBeXZ9OfAkvQ/YbJpScUUFmUHe+mCItISKWBqWX53Di7jCHTTOreVMA0mZ7tYOGMMlw2mdVLFxJSacCmwEnTyzg510UgiSt3dusm155YxOJppfFuirCQhFSamDu+gDPKc+hJ5ke+gM7Zcyrj3QphMQmpNJFpV7n+jClJu7hTNwGHnfNnlMW7KcJiElJp5KKZZZCfSTAJ9/O1BzTuPncKuU5bvJsiLCYhlWb+eMFUupKsNxUyTcjN4ItnnRDvpog4kJBKM0tml0F+xsjpKkmiUzO4s6qErAxZvJmOJKTSTEl+Fo+dNYmeJKmOYJiAauOS6aVkOeRRLx1JSKUZh6pw6oklZOVmEEyC5QhtusEXpxUyU8oDpy0JqTQ0qSSP70wvoivBz2Q3TMCmcsWcCsrzMuLdHBEnElJpKD/DztkzyqjIsBNK4JzymSYX5zmZIb2otCYhlabOmFHGkspcOhN4AN2nGyycVMj00tx4N0XEkYRUmspz2Tl9Zhkk8vl8wzqfXjxNLtI0J99/Grv+lEmAQiJ2pvp0k/nTiplXLiVZ0p2EVBorynDw/bMm05aAvamhoM6dp02MdzNEApCQSnO3LjoBXI6EOu142DApKM7ivGkl8W6KSAASUmmuJD+TL88YR7uWOL2p3pDBg4smMi4vM95NEQlAQirNZTvt/MfJ40G1JURvatgwmV2cxaJpZdhVKWwnJKQEMG18Id+eXUx7AhzW0Kub3DA5n9LCrHg3RSQICSnBuBzXSLVLuxrXmT7NBKfTxmnTSinIcMSvISKhSEgJAKomj+OCHCe+OO7n6zBMPl6WxTmzK+LWBpF4JKQEADNLc7isqhxfKI6PfCGdc+dNIN9lj18bRMKRkBL/9smzpoIZn/P5TADd5CNV0osS7yUhJf5tYn4GS2aU0B6HWlOekM5N8yuYXCDLDsR7Sb9avMfXT5/Iih0e3FkWXhqmCZrJHedNte4zRdJQTDMJKp8JywQ0nWe2t+APali1Ssk0oSDbxdXzKnHZpXMv3ktCSgiR0OS2JYRIaBJSQoiEJiElhEhoElJCiIQmISWESGgSUkKIhCYhJYRIaBJSQoiEJiElhEhoElJCiIQmISWESGgSUkKIhCYhJYRIaBJSQoiEJiElhEhoElJCiIQmISWESGgSUkKIhCYhJYRIaBJSQoiEJiElhEhoElJCiIQmISWESGgSUkKIhCYhJYRIaBJSQoiEJiElhEhoElJCiIQmISWESGgSUkKIhCYhJYRIaP8fgTH3Djih5jEAAAAASUVORK5CYII=;" vertex="1" parent="1">
          <mxGeometry x="150" y="310" width="37.87" height="38" as="geometry" />
        </mxCell>
        <mxCell id="8rjDxc2SI9L2Ybvgmmq--417" value="Local-Compute" style="strokeColor=#dddddd;fillColor=#ffffff;shadow=1;strokeWidth=1;rounded=1;absoluteArcSize=1;arcSize=2;labelPosition=center;verticalLabelPosition=middle;align=center;verticalAlign=bottom;spacingLeft=0;fontColor=#999999;fontSize=12;whiteSpace=wrap;spacingBottom=2;html=1;" vertex="1" parent="1">
          <mxGeometry x="90" y="392" width="70" height="100" as="geometry" />
        </mxCell>
        <mxCell id="8rjDxc2SI9L2Ybvgmmq--418" value="" style="dashed=0;html=1;fillColor=#757575;strokeColor=none;shape=mxgraph.gcp2.compute_engine_icon;part=1;" vertex="1" parent="8rjDxc2SI9L2Ybvgmmq--417">
          <mxGeometry x="0.5" width="50" height="44.5" relative="1" as="geometry">
            <mxPoint x="-25" y="12.75" as="offset" />
          </mxGeometry>
        </mxCell>
        <mxCell id="8rjDxc2SI9L2Ybvgmmq--416" value="" style="shape=image;verticalLabelPosition=bottom;labelBackgroundColor=default;verticalAlign=top;aspect=fixed;imageAspect=0;image=data:image/png,iVBORw0KGgoAAAANSUhEUgAAASkAAAEqCAYAAABJDaYsAAAACXBIWXMAAAsTAAALEwEAmpwYAAAgAElEQVR4nO3dd4BcZb3/8fc507bXbE0jpG8ahBYgdKQEBKSpqFcEr/VauSIXy08R9IIioqKCCIqgNAkSEhMICSEkkJCe7G42yZZkd2e2t5ndnXLK749NvJSQ7MzOnGnf1x/+EZyZJ5kzn/Ocp3wfxTRNEyGESFBqvBsghBDHIiElhEhoElJCiIQmISWESGgSUkKIhCYhJYRIaBJSQoiEJiElhEhoElJCiIQmISWESGgSUkKIhCYhJYRIaBJSQoiEJiElhEhoElJCiIQmISWESGgSUkKIhCYhJYRIaBJSQoiEJiElhEhoElJCiIQmISWESGgSUkKIhCYhJYRIaBJSQoiEJiElhEhoElJCiIQmISWESGgSUkKIhCYhJYRIaBJSQoiEJiFlodV17fFugohQS98wQ0Et3s1ISxJSFunza/xg6U72tA3EuykiAq/tbOafuz3xbkZakpCySEOnl14Tnt/UGO+miDA19wyyqq6dn7zdFO+mpCUJKYt4ur3UBXVW1nWw41BPvJsjRkk3YWtDB38/NEBtUx99AXnks5qElAV0wNPlg5DBpoEgq3Y04wvq8W6WGAV/UOOxHR5UFcBke3NvvJuUdiSkLHCoy8eyA904VRhnV7hjTwf73XKxJ4P1+ztYdqCbcpsKTpVNBzrj3aS0IyFlgY5eHy95fBSpKk5FgcEAy3e1MiS9qYSmmXD58loKnLaRP7CpHPT0EdDN+DYszUhIxVjIMKn1DEBIR1VG/qzcofKDza3saJaxqUT2+v4O6B4kyzbyxRWosKNriGp3X5xbll4kpGIsENJ5vbkfDl/oAKqigGLy0zca4tgycSwm8OqOQ+Cy/fvPMhWFt31B6lvk5mIlCakY8wdC/KWhh7J3hRRApV1l+W4Pbzd1x6ll4lherXbzSF0XJbb/+4koALrJ7pZe+oZDcWtbupGQirHd7n4YDGJTlA/+xxwHD6+pY0CmtRNKvz/EhloPfQEdx/u+tmybwtudw3T7/PFpXBqSkIqxP25tBvvR/5lLVJU1Hi/bGrssbpU4lpZOL39t6KPI9sEbS46i8Gr3EF4JKctISMVQ0IS/72mn/ENCyqHAIb/G2ho3/X7pTSWCoG6yem87jf3DZKgfDCmbAgyHqGsfQDNlls8KElIxtLmp5z2zekdTYVO5a6uHt/a6kUs+/vZ5+vjmmnrKHbYP/f/k2BXu29KKT8alLCEhFUO7DnWD88MvdgBFAVR4bHsrPr9c9PH2x80HQeWYN5Zcm8q21gHa+oasa1gak5CKoYbWvvcsPfgwFXaV5+p7eLtexqbiqXs4xK+3uyk7Ri8KDs/yYbK+UWZmrSAhFSP13YPUdvrIOtYt+TAFyFMVLllejYxMxc9TG+pBM0ZzX8FhV3l+n9xUrCAhFSM7GzpY0esn72hLD44ix6ZA1xBPv3Mwxi0TR1Pb7uX5HS3kOkf3kxhnU3mlrhNNBhJjTkIqBoY1g4PtA6AZxxzb+IAMO6t2tNA9GIxZ28TR7WroYL0vRPYovzBFAQyDN2TDccxJSMVAl9fPto7BsP91y1SFJ1sHWLOnRWb6LNTaO8SKmjYwjPC+MoeNN2paY9UscZiEVAz4BgOs6BxiXFjdqMNj7LrBP/e04ZaZI0sYwNaGTp5o6KPCFt7PQbEp7G/tp0eWIsSUhFSUmcDBzgF6+v0jZVnCVGFXeaqxl631HdKbssDAUJCfvH2QTJtCuN9WkQo7vUH2evpj0jYxQkIqyoYCGi/v6zr2QptjUIBcVeG7bzTi7pXeVKy909jFlpYBCkYzpfc+DkWhelijvdsbg5aJIySkomxgKMhDdZ2UfshWmNHItSns7RjkhZ0tUWyZeD8duGRFLXkONexeFBz+8WgGje0DDGlGdBsn/k1CKsp2e/pgMIg9so7Uv41zqXx9fSNBeeaLmbX7O6DDN7L8I0JZqsKKg314egej2DLxbhJSUfZ0dTscZ8XyaDgVBYaC3LeyOgqtEu+nm7D0rQbIsI/pffJtCq+1+mhul3GpWJGQirLH67sZN4Y787vlOG2srW2nrl3GPKJt3V4PK5r7GRfmjN77KQCKydbWfvzyyBcTElJRdKjPD91DOCMcNH+/HFVhTX+AzfvakMs/evr9IdbVuGka1nBG4avKsKm8cqiPYEg2NcWChFQUvVLtHtWG4tFSgSxMHt3WSmO7HM8eLW09g/yxvpfiKH1XBarCKy0D+IMSUrEgIRUlAcNk817PcUuzhKtAVXijzcsL25oJyOPEmPlDOs9tPYSn348rSj1eVQECIZZVt0Xl/cR7SUhFSVOXj6aBADnR60j92ziXjdt3emjrl3VTY1XfPsAPNrccs6hdJPKcNu54pzmq7ylGSEhFSXOXlx1DGlkRrDI/HqeigC/A7984EPX3TjePvnNoZI9elL+mbJtKV0s/HUOyOTzaJKSipLPbR2dAi+aQ1HuUO1TufauZA93Sm4pUX0DnV1tbjlvULhLK4f/ZerA36u+d7iSkoqDd62dDUw+YZkQrl0dDBXAoPL5+f4w+IfX9YlU1GGbMbiQ4bWypb4/Rm6cvCakoaOvx8VDzACUxu/pHFDhUVu/rZNtBKVsbrroOL5sOdJLjiOElryo0tQ3gC+qx+4w0JCE1RoYJTR1e8AVxxGA86t2yFIXN3gArdzTjk+nusOxq6GT1QJCcGH5HRSps7R6mulUe+aJJQmqM/CGdDc39EVc9CFeRqvCHui5au32WfF4qaOkd4oU9npgMmL+bS1HY6QvR0NITuw9JQxJSYxQIadxf3xO1hYHHk6EqNPf7eWxjI4PyWHFcumnyZq2Hp+t7qRzjFpjjUQBMk+2t/XRJCeiokZAao9beQYze6G2FGY0Kp437trSyu1nu2MfjHQ7xyE4PGbEci3qXPJvCW51D9Mox7FEjITVGz+3yAMRsVu9oFAC7wj3r6i381OS0saGLtS19FFrU081SFN7sHsYrIRU1ElJjdNe2Vkosuku/W4Vd5eW6Tra1SomQY7liRS359siK2kVCVYCgxo7WPkKGFAOLBgmpMajt8ELPEA4LH/WOUABcKve/vEumvD/E0t1u6PSN+piqaClwqHx3SyteWX0eFRJSY7D1YE/UNxSHo0RVWds1xKYDHXFrQ6Ly6wZrdraMuahdJDJVha4OH4d6ZAY2GiSkxmBfSw+MoZb5WDkU8Pg1Xq/x0CfHKr3Hpn3trDzUF7UChOFQAFRY1yCLbqNBQipC3UMhGtoGUOLwqPduZTaVu3e3s7upK67tSCT9fo21NR4ODIUiOlYsGrLsNv6+T76TaJCQitCWhg6Wdg1TEueQsh0+7vtnGxoZkN4UAI1tffy4rouSsZ6GMQb5NoVNB7oYDEkNsLGSkIqAbsIhTx9DAX3Mp8JEQ4Vd5V8NPWyV3hT+kM6r1R4YjP02pWM58snr9suG47GSkIpAly/Ang6ftYujjkEB8uwqF75UTSDNp733tw9w++YWyuKwLOQDnDberPbEuxVJLwG+yeTTP+hnQ+cwBXF+1Hu3HJsCXUOsTPMfxZ+2NIOmY4tjL+oIu03hQPsA7b5AvJuS1CSkItDdN8jWrkEyEyikAMi089yGAwz403NsqnsoyINvNlERx2Uh71agwDZfiL0eWXA7FhJSYfJrOm80xrbAXaTKVYWn2gZ5eXtzWh6B9fDrdeC0bnX58TgUhfphjS6pWDEmElJhGhwO8WBNB4VxXB/1YVQF0A3+VdOGpy+9ygzv6/Cydm9HbIvahUkB0A3qPP14A1L/K1KJ840miYM9g3g6fIn3qHdYuU3lyYN97E+zwms1TZ2s7g+Qk2DfS75NYenBfjy9g/FuStKSkArTizXtEOO6RGOhKlAAXPByLe7e9OhN1Xd4+cM7zThMM+Eu6GxVYUu7j4Nt/aT3vGvkEu07TXhPHegiP4EeKY4my6ZA7zD/2NkS76bEnG6abKvvYFWrl5JEvXmosKmlH39INoJHIkG/1cQ0ENRpaO0nK8EeKY6mJMPG19c3Mqyl9v17yK/x8A4PrkRYVfshcuwq/zrUR0iTkIqEhFQY1u3vACPxZvWOxqEoMBjkrxtT+wisjQ2dvNbcR1Gi9qKAHEVho8fLgJRuiUjifrMJ6LUdh8CVGGtwRiPXZeOJTYeobffGuykxETLhsr/toDSBlh0cjaoAms6zu9zxbkpSkpAapZZ+P4e6ra1lPlY5qsIGX4jN+zwpuW5qVbUbQhr2BFhdfjxFThu3vdMc72YkJQmpUWrq9LJ3SCMv8X8P/6YATtPkmZ1uGjsG4t2cqAqZsHpnS9L0bDNUBdp9tAxI7fNwWV+2MEl19fioHdaoSKKeFECxTeFfHUM88GodcyYWoiRBr+N4VAXcfcOsauqjNIHHoj7AobLlYA8T5lXGuyVJRUJqFPr9Gjube0E3UNQk+lEw0puqtCk8tLcDqlOobIiqUGpXE6JUzqjZVbbXd3CNhFRYJKRGwdPjY9mhPgriUIo2Wirtqnzb8aYqNLYN0OvXKIxD7fVklVzdgjhxd/vY2jWcsFthRHIYp8LbvX72yKGuYZGQOg6/Zhw+2y451keJxOVQFPYPhWhslZAKh4TUcQSCGs809JCbgFUPRHI5cpPb2tpPh1cK4Y2W/PKOY2A4yBaPl+wUmBUT8VegKmzoHKJPjmEfNQmp41h7oBM0HRmOEtGQoShs7fXT6x2Od1OShoTUcXxvUzN5juRYMCgS35EtMpsO9RLQU3EfQPRJSB2Dxxugpaln5JADIaKk2K7yja2t+GTD8ahISB3D1kM9kOC1o0TycakKdA9T3ym1z0dDfoHHUNPcAzKrJ2LBrrC6Xg5zHQ35BX6IgGHS6O5P6FLBInnl2VX+XNcZ72YkBfkFfoitjV2s7/BRLP9CIgaybQr7m3rp9cspMscjP8EP0djaS/WQhlPWR4kYUABs8Gptep84PRoSUkfR5w+xv8ObNKWCRZJy2ti8ty3erUh4ElJH0T8Y5O3OoZFTV4SIEZeqUN/lo7lfVp8fi4TU+/QOB/ndun2sah2gQJaZixjKUxS2eEPUpdlBruGSkHoXE3jk9f3ct6mFSlkfJWLMoUCLX2PVjmaae+SE4w8jv8TDTGDp5kbu2NBERaYUJBPWqLAp/KK2k/9dWY0vIDN9RyMhddj6uja++Oo+Cm0KMqEnrKIAFXaV39V2cvsLO+Qo9qOQkGIkoM57difDAV2qbwrLHQmq3+9w84Nlu9FMiap3S/uQqnH3898r96KGNPJlNk/EiQKUZTq4Z2sLj7y+j+GQHMl+RFqHlMcb4PZ/7mRz5yDlsv1FxJlNgULT5Ccbm1i2oxldOlRAGodUwIDfrqpmefOAzOSJhJGpKgwFdT65opble+RYdgDFNNPvAbjfH+Lel3fzs21uKlw2WVUuEk7ANOke0ln/xUUsnloS7+bEVdp1IQKawbItTfxsdzvlTgkokZhcikJOpo1vPL+D7YfS+3SZtAuppzc38pnVByhRTKlbLhJanqqwbSjET1dUU+fpi3dz4iatQmp9Qzc3r6yjyDRxyGIokQQqVIXnWwf4n+U19KRpueG0GZN6q6GLG/62lb6QTr50oUSScQd1yM7Ae9v55LjSa0dEWvSk9nr6+fWre2kNSkCJ5FTptIFvmB8u25V2PaqUD6lOn58HXq3l6UN9VMpiTZHEyl12HtjdxqPr9jGQRhU9Uz6kvvLMdh450EOFU87OE8lNBcYp8N23D/HclibS5dS+lA2poG5w50u7eH5fJxU2RZYaiJTgVBTKFIXPv1TD/atr490cS6TkwHlAM/jrxnr+c80ByhjZbiBEKjEBz6DGmltOZfGMchwpPNaakj2pNbUe7n6zkXzTlIASKUkBCjJtfHbpHjYf6Ih3c2Iq5UJq/YEOvvFyNe0BjewUvrsIkaUqtA6HuGN5NduauuPdnJhJqce91v5hJtzzGnmZKjkSUCJNuDUDMp3su+V0ppfnx7s5UZcyPanGLh83P/kOuBQJKJFWKu0qruEgM57YwsEUrJWeEiHVPuDnodfqWN3uo8KeEn8lIcJSbFehf5ifrthDS99wvJsTVUn/iw7pBg+ureP+PW2Uq7LUQKSvCqeNR+q6+O3qWnqGQ/FuTtQkdUgZwJ3LdvOztw5RblelqoFIawpQble5d5ube1fspjdFts8kbUjpJjy/5SC/WN9EZaY9ef8iQkSRClS4bNy3uYXfr60jlALTYkk5u2cAa/e08pVlNXQFQmRI2RUh3sMEPEGDJ5fM4ONnTceexD+RpOyA1Lb0cscrdewfloAS4mgUoNih8B9r6nl1d0u8mzMmSdeTqm3to+rRTdg1jVKZyRPimPyGSY9msvz6eSw5eVK8mxORpPqVd3gDXPX8TmwSUEKMSoaqUGhXuGJlHa/vbYt3cyKSNL/0Tl+Q+1ZWc6DdS5kElBCjlqkqZA2HuOD5Xezx9Me7OWFLil97QDd57u167t/VRrlL6kIJEa4CmwL+EP/vn7to6E6uVekJH1IBzeB3r9Xw1dfqKbMpid9gIRJUpUPlhZYBvvncNg50euPdnFFL+IHzlbtaufzpHZQ7ZbGmSDxdmkE4SybtQJFNwR7HWWl30OD2BWV87SNVTCjMils7Rivhj51wOVXItDMY0smV4lAigbj9OtfMGEeuw4bJ8e/1CiMD2dvdXg75/HELqgqnyn2bWiktyeO2C2bEpQ3hSPiQOn9WBSuuMVjyz2q8gRCVcRo0D5kmnZpBJIWlXQ6VItlXmDJGjkDXuGPxFH54eRWafvyLQlEUMh02/vzOQR7b301JnK4GzYSOoM5/nlLJx0+aEJc2hCvhH/eO2NHcy21Ld7Kmc9DyoAqZJlMLs7iyqpzxuS5Co7goYeTCDIZ0Vu5xs6x9kHIZU0t63YZJpt3G41fM5pqFo193ZAKrajxc/qdNlOe64jJ0oZnQYZrcv2giX7ioipwkOZwkaUIKoNrTz5ee28Gb7d6Rc8gsYgIe4L7TJvD1S+fiCvOxc3/7AL9ZvZff7O2kwq5KjypJ9ekmM3Kc3Hv5LM6rqsRlG90tJ2SYvLyjmZuW15CtG7ji8JinmybtQxp/vqqKa0+fQm6SBBSA7Uc/+tGP4t2I0SrNzeCUyny6un1s6h0m16LbkQLkAEv3d5Nr6MyoKCA7jC+5OMfF/ImFBHwB1rT0kyvrvJLOsG7gReXZGxZwYVUl9lFee4YJS7cd5Cer99Ed0C27Zt9NM0w6FJVHPzKNTy2eTlaSXX9J1ZM6Yn+Hl+8t3clzTb1UZlg3rGYAbbrJnSdVcNtlcynKcoT1+qBu8Nmnt/H0Tjfjshw4pUuV8EzAoxngsLPz5lOZP6k4rNc//nYjX3plL3bdpCAOAeU1TLxBg2euruKa06bgTMLJp6QMKYDOoRC/WrmHn77TQoXLjlU9aMOEtqDOVScW86tr5jFlXE5Yrw8aBo+/Wc+P32igL6RTKOsqEtaRgLpuUgF3XTmXqorR1w/XDJM/bqjnKy/soSTfhSMOX7NHN6jKdfHQVfM4b2aZ9Q2IkqQNKYCBoM7dL2zj5zWdlKuKpYOR7oDOuRPz+ftNp1KZnxnWawO6wfJtB/nOawfoGQ6RJUGVkNxBnc/NHMedl81hWmnuqF83HNJ5+u1GbnltP6UQlzIpbs2gLNfFC9fO56xppdY3IIqSOqQAuoeCPL62ju9sOEi502ZtUAV1Pjm1mB9fMYfpZXlhvTZkmGyu72Txo5soctnISMJueCpz+zVumFHCr687ifK8jFG/LqSbPLZ+P99d34ii6XG5AblDBmeVZvPLK+ZwxtQSyz8/2pI+pAC8fo1H1u3jv99ooNRhs+zO9e7HgbuvnMesivCCCuCt/e2c9dwuGApQ4bDJzF+cHVlH9MX55fzwsjlUFoTXS/7pK7V8b0MjRYws3LSaO6hzdlkOD127gAUTCi3//FhIiZA64vH1+7nllf0UqdZdICbgCY2ce1b92VOpiuDCONDh5fYXd7G0uU+WKMSRZkIH8KszJ/H5C2eR7Rj9DG5AM/jJyhruWVdPWbbT8pOzTcAT0PlqVQnfv+YkynNc1jYghlIqpACeeKuBz762n5ygTp6FV4pPNxmw23jnM6dw6pRxYb++qXuQX6+u5YEdHktnLMUIzTTpGNb569VVXHPaCeSEEVADwyEefWM/t21solyxdmwUDk/mhAzumF/K15fMpyI3dQIKkqAKQrg+tWgKS5fMoiDLQZ9uXf7m2BRsmsY3X9zFxv3taGF+9AnF2Xzvyvl8aX4Fbr8+ip1gIlqCh9cR/eWjs/jEmVPDCqihoM4f1tZx28YmShTiE1CawfdOqeS2K1IvoCAFe1Iw0vVducfNkn/sxK6blFrYo2rTTSZnOfjbDQtYNDX8WZXe4RB/fmMf317TQHGmLS6rk9NJn24ypBn849q5fHThZBxhpsyXnt7KwzXtlKpYvmFYN6E9oHP/uSfwhQtnkeNKzR54SobUEVta+rj5yXeoHgxRaeE8sM8wGfDr/OmqKm45e2rYrw/oJv/Y3Mhtr+1nKKTLsfEx4tYMTinI5MGr53J2mNP0A/4Qdy7bzUNbWijPclj+SOI3THoMeOzSGXz67GlxWYdllZQOKYCth3r44bI9rGjzWjoobZjQNqyx/KaTOb+qgqwwHiGOWLGjmSteqiZHMywdX0sH7pDB9IIMnrp+AaedEN4YYpcvwK9W1XDPtlYqnNbPyA4YJn6nnd8uPoEvnpf4pVbGKuVDCqDG3cevVtXwx/peKh3W3fMCpkm3qvLXi6dz/elTyAhzz5QJrK/1cMVLNfh8/riVqUk17pDOFePzuWtJFQsnh7fNpWcwwM+X7+F/qzsoU7B8Fq9XNynMtPPw5bO5dN54HKPc5JzM0iKkAPZ1ePncM9vY6PFS4bLu7jdomLhsKj88ZwpfOn9mRBf1hgMdfOGlPdT0DFsasqnmyDT9ZRPy+eXH5jM7jG0uACHg809s5om6Tsod1leK7dBNNKeNZVfPZcncStQ0Ga9Mm5CCkYv0qkfe5OXmAcpsimV3wZA5stfwK2dM5FcfOynswVmAhu4h7v7nDh5v6KXCIWupwmWa4AnqfGdBOXdctYCizPA2h3d4/dz65Du8fKifigzrH/HcusnUDDvPfvYMFo4PL1yTXVKVahkrBbhweikFgQDLPF6ysGZNi02BXKeNNY29qMEQ88cXkOkMbyamMMvBadNK0ft8rG71km1TLdtUneyOTNPfdep4vrlkPsVhVq841O3j3hXV/LWplwqntTeIkePSdT4xKZ9fXruAUyamxirycKRVSAHkuOzMnVhIpj/I8tYBsi0s65vttLG8pR/XcIB5EwrJCjOocl12TppcTKEe4iW3lyysX5eTbHTTpF2He86YyNcumRN2eZ3mviF+vqKa39R0Wt6DNQGPbvK5qUXcuWROymxzCVdaPe69W1A3uOdfNdy19gCluS7L9vtpJnQYJrfOGMcvrz+ZvIzwfjQA3oDG71+r5btvNFGSYcMhXaqjCpkmnQGD339kGjefM52MMGdYe/0a1/1hPWt7hqmwWVuj3gQ8fp1Lxufx2GdOY3yYlTZSSdqG1BH3v1bH/2xoJEM3LKuaaABtAQ2Kc+j60pkUZ49+l/27Pbf1EDe+tIcsiEtBtUTmNUy8KDx9ZRU3njY57IA50Only89uZ7XHa3kPSjNNOjST/6wq47efPDXtiyOm/VTRty6cyaMXT6c8w0G/YU1eq0Clyw49g3zuyS00dfkiep8bTpnEsx+dw9QcJ24tgmNsUlSHblKa5eDJJbP4eAQBtbetnx+/uJPVHi+VFgdU0DTpUBR+cvoEfnHtgrQPKJCeFDCyg33lnlZuXVaNqRnWVlDQTT41MZ/vXTGH2ZUFEb3Hm/va+emqWlZ2WH+STqJxawYL8zO49/LZXFBVgS3MR+Fqdz/3LNvF31u9lj/i6Sa0GyYPnjuFzy2eRm4EQwGpSELqMAN4pcbD5X/ZQk6GjTwrg0ozuKQ8lwevP4lZYRbPO2LroV5ufHYbDb3+mM5AmYw8joR70aiMLPmIZbs8mkFFjpO/X7uAc6eXhv1ZjX3D3PTnt3m7a8jyR7yACd39AR68eg5fPmdqWizSHC0JqffZ2NDFV5/bzo6hEBUWzvx16iah/iDbbz+fk8aH36MCGNJNrvnDel5t91GmRn8dmAkEgUKXPazHEAXw6iaDQR1nDILqSI/01BwHz3x+MScWhT/IvK25hxv/+g71w5rlvdE23aTYofKry2dz06mTLf3sZCAhdRTbDvZw9/I9LPV4Lb1gvYbJtDwXD145h7NmlIX9qALQ2j/EY2v38cNt7qjvzG/TTT4+KZ+vnB/efjEFGA5p/PyVvbzRM0xRFHupI+uIDL44o5hvXT6HmWHUIj9ic2MXd62oYXm7j0qL97m4dZOLCjO57eIZXDZvvCzSPQoJqQ9R09LL7S9Xs7yl39KtKG7N4JzCDH5waRUXzamIaGajdzDA71/fx/c2N0e1CJvbF2LdFxdxboSF/d/c1845j78TtRXbRx7xvjWnjG98ZBaTi8M7uQfgzfpO7v5XNavaBi3fctSnm1TmOHnsmnmcPaNMZrE+hITUMbR5/VTc9zoYmqW73TsMk/EOG7+4sorrT5oY0XuEdIPfvnGAb79UQ1G+k4wx9qjcfp1PzyvnrzedOqb3ufWZbTy2o3XM1UcNoG1I46bZJfz2xoUUZjnDfo9trf185PG36Qnqlvag/n2WX9Ck4fbzOaE4R3pQxyDhfQzluRl0/8+F3DK7FI9mYlWhz1JVwavp3PDUdv6yqZGQEf7yAodN5VsXzOCJT55MicuOW498iUKHbrCoMpffXDMv4vc44r4r5nDVCYVjWjLhN03adJPvnjmJp25eFHZAmcDq2jbO/8smvBYHlAF4NJPrJuSz97bzmCIBdVxpty0mXJkOG4smF2EbCrCqzWvZNhq7oukaA28AABM+SURBVJDhUPnbgW6mu+xML8uLaMZnwfgCZhZl0uLpZ/ewRm6YPSrNBK+q8odLZjB3QvGY9wtmOe3MGpfFa/s66Q/pYa+WHzRMVIeN+xZP4duXVI36uPMjDBNe3+vh9uU1NA8GKbNwFs1kZFzv1hnF/Oya+Zw4Lvzxs3QkITUKORkOTp5chCsQYkVDD7kRFLCLhE1RsJkmqw71UmjqLJxcHFF5jhNKcplfmceO+m72DoVGvbLeZGTdzs9OqeDGRVNxRWkSoTAnA7s/yIsH+8gJI/SDpsmgqvDwJTO56cwTyYzge1i2u4Xb/7WX3d4A5RZP83uGNf5rfgU/vmIulYXZln52MpPHvVEqznbx/Svn8fmF43EPhghZ9OiXpSoQ0vmvdY3c/a/qiN7DpsApk4t59ubTIdOFO6gzmoetIcNkXpaDS0+eHNX62Rl2lU8vnsYnJuWPjM2MwqBh0tUf5Mmr5vKJM6ZEFFCv7Wvn6hf3sM8boNzCRzzNHDls9CMzSrjn6vmUpfE+vEhISIXBqSo88vFTePSjVXQqI0sGrJChKpQp8OPXG7h96Q78mh7R+0wuzqH7m+fymRnjaNPNYwatCfQHDb57wTROjkF5kKIsJ3dcOQ80E+0YczcmI9P05ZkONnxtMTecPDHs2UoTeHF7Mxc/uY183aDYwoDymyY9wE/PO5EVnzsjog3l6U4e98KkALMq8zkpx8HGg734NMOSKgSqAjlOG6vcXoz+IRZMDL/UC4yMsS2eVkJ+UONld/+H1tTyaAaXTC7k3qvnj/pxrG0gwIA/OOrtHOW5Lia5FP6+v5ucD9mC4tEMPj4+l3uvmseZJ4Z/ZLgBvLCliS+/UodNNyw91CJgmvgUhT9cNI3PLZ5Gpt2aYYJUIyEVAYdNZWZlAVNzXTy+s40sm2JJKVcFyFIUVnq8ZA0OM2N8IbkRPIZlO+0smFxEpQrP7+0k533LKzTTZFBVeepj85lQmDWq9wzoJr9bXc2e1n7Onj76dVTTyvLobO/njY5Bct/Xw3FrBueX5/K/V80Luxb5Ec9ubuKzr+xD92sfeP9YMkzoDBr8/ao5XHfqFLKdElCRknVSY2AC62o9XPDEVlwO1bLHCMMcmSVaMiGPZV9cHPEzu2aY/GVjPZ//Zw25WXZyVeVwHSONp66cxY1nThv17NmG/R1c9cx2MhSFp6+fzzkzy0fdji1N3Zz59DYyh0cG9Q2gLahDloueb50X0RoogH9sb+b6F3ZTqEKmhT2oAcPE59N45hPzueG0E2SJwRjJmNQYKMD5syt489bTOaMoE7dFC6lUBSrsCisO9nLub9axv8Mb0fvYVYVbF09jxX+cwqwcJ27dxKMZfG5WCRfOmzjqgGro8vHLNfvoCWi4/SF+uXY/B7sHR92OU08o5sXLZuFVVYaNkTVQX5pbTts3zokooAKazu/X7eP6F3YzzmZtQLk1g9n5Gbz55UXcKAEVFfK4FwWTirI5qTyX2pY+9ngDlhTPU4Bcu0qNN0Cw28u0sjzG5UZWPG96WR7zy3LY2dyLVzf4+aWzmDPKTc5B3eCJ9ft5cFcblU4bOarClj4/J+XamTOxCNso/y3KC7MJdg2wttXLD04bz52Xz6EkJ/y/z3BI58V3mrhlTT3jMHFaHFAXlmbzwEfnsCjCrUPig+RxL0pMoLHTy9Q/b4b+YSotWkt1ZIvF1RW5/OTqBcyL8CQRAzjg6ePtxm4+uejEUZ9os+FAJ4uf2kqpafx7M3PINOlEYd2nTuHcMManWnqHWLGzmetPn0JRhI94D7xay7c3HqTYMHBZGVChkcfTfbeewfQIy+2Io5OQirLdrb1c9/xO9nf4KHfaLHuedmsGp+a5+NNnzmB+eeQrmQO6gWuUixx9IYNZD6yh2xek6H3jce2awaySHPZ8/bywPj+oGzgjWGSpmfDEhgPcurKOErtiWd33kVLQOrPLc3nxhpOYEeZZfuL4ZEwqyuaNL2T95xbxhdkltOnmqBZNRkOlXWWLN8BH/rSR9Qc6In6f0QYUwP2v1NLaO/yBgAIos6tUt/Zz14o9YX1+JAHlD+k8srqGW1fspcyuWhtQmsFX5pWx5uYzJKBiREIqBsryMvjBlfP5n5MraRvSwq5iGalKm0pXQOerS3fxSrU7pp+7bm8bz+xqpcj14Y+1RZl2nt3pZlNDV8zaMRTS+c3qWr66vokyp2rZga8m0Das8ZPTJvD9K+ZRnhfZeKA4PgmpGJlQkMltl87hawsr8QQNy4Kq3KZQ7Q3w9ZdrWLrtUEw+o61/mL+81UjtUOiYJWAyFIXqYY3nNjfR5QtEvR1DmsHDq2u5feOhw5VILSr5bI4cN/Xfp47n65fOoUICKqYkpGKoOMvBjz46jx+cNh7PYAjNoqQqt6m0DAW57qVqlu5ojup7Gya8Wu3m8YYeykex4bhcVbh/Tzsrd7dEvdTNw6tr+fb6JsptWNaDCpgmnmGNhy6ayvevnEdeFPc0iqOTgXML+HWDv22s59Y1Byg2TVwW3fH9hkmPDo9dNoNPLToRZxSqGKyta+PCx96hLNM+6mAYme1TqfnCoohOxHm/Ll+A/11Rzf3bW6nIsFu2FmnIMLE7VB68aDrXnX4iLotLDacr6UlZIMOm8qmzpvH3j0yn21DQLNyYPM4Ot7yyj6c2HmA4wo3JRwyGDD65Yi+5LltYPReHoqDoOp9ZupvhMZ4P2O4N8MS6Ou7f5bE0oIYNkz4UHl0ym5vOnCoBZSEJKYu4bAo3nDWNZ66YSYdmErQoqJyKQokCt6xt4Leraog0pkzgyfX7aO/wRbQHrsKusvVQLy+OYZzMb5j85KVd3PZWM+V2646cGtBNeh12Xr1hHlculNNcrCYhZSEbcO1pU3jxurl0qQrdYyjpGw6HqlBmmty+/iC/X7OXYAT5uOVgN7/a3EyhK/JLJifDzh82NlLtGQj7tV1DIX724g4eqm6nwqFG7XCJ43FrBj6XnX9dPYeL5k5AtglbT0LKYnZV4eqFk1n3iZOZnZdp2fHoNgUqMm187ZX9/PC5rfQOh0b9Wnf/MH9+fR97fUEyxzCelqcqvNE5yB9fq6VrcPSzfe1ePz/95w7ueqeVCpd1B2K4NYNLy3LYefPpctxUHElIxcm5M8v54w0LKMpxWRZUClCeYefePe08+cY+fEHtuK8ZDOo88eYBfre/h4ooHPlU7rDxYH0Py7Y0ERjF37tnKMgDK2t4YE971I7CGg13QOeyilweuGEh8yM8rFVEh8zuxdnm+i7+e3k16zt8lp37ppsj21buO3Mi1585jSlFR68ZdaBrkGWb6vn25paont8XMk06TfjN2Sdw9RknMjH/g+uMDKDa08+LG+v54XaPZceeH9kLefOJxXzn0tlUVcoq8niTkEoAe9x9fHvpLl51D1BpUXE0w4Q2w2RJcRanTi5gwZRxnHD49JL6Ti876zvY0tzHqu5hym3RHwPSTZN2A64uyeLkSYWcdGIJk8flEAjp1LX1s7O+k82tA7zZ56fCro75lJrRMBk5LOGWmeP44dXzmVwkhyUkAgmpBHGwb5ifv7yLh2o7LTuI1AT6DZMh3YSQAUcG8m0qOFSybQp5MTzCywR6DJOAbkJIH+niKf/3+fmqQrZFI+S6Ce0BnZ8unsxXL64i7xjbfYS1JKQSSPdwiO88s4XHD4//WLTmM+1ppkkHCj9eUM7tV51EhqyBSigSUgmmtW+YJ9/Yxx2bWqhwWrcWKF2FTJNOHR6+4ERuOntaVI/uEtEhIZWAunwB7ltZzc+3tlLuslu2JijdHNk29Oil0/n0mdE7/FREl4RUAvv9mjq+suaApUXc0kWXbhJUFV782HyuXjA+3s0RxyC3jgT2+fNn8sjF0+hURg4oENHh1gxOznfx0rUSUMlAelIJTjNMntpYz82v11MY0i09+SQVuTWDs4uz+NmSKs6ZURbv5ohRkJBKAoZp8sK2Q9ywvJZSw8QuORURt2awMD+Dxz+5kPnjo390vIgNedxLAqqicP0pk7mzqpQOi7bQpJp23eSCkmxe+PzZElBJRkIqidx41lQIWVeKOFUY5shizV9fdxKTC6TUb7KRkEoiCyrzmT2xAJ9FJyWninbd4NopRUwulm0uyUhCKsncefpEvIHjVy8Q/8fUDD5RVUqWyxHvpogISEglmY/OrWReZR4D0psalS7d5IqJBZw2rdSywxpEdElIJZmcTCc/OnMyPtOUsanjMIEgcH1VKZPG5cS7OSJCElJJxqbA3ElFnFacxZAs8DymoGkyN8vBzEnFcqEnMfnuktD4ohw+NrmAflmOcEzdBiwszGDBRFlykMwkpJJQttPG+QsmMDvXSUDW4n44v8Ynzp1OlkNqQyUzCakkddqUEi6bXEC3DKAfVdA0IT+Dy2eXx7spYowkpJKUXYHFVZUQHNuBn6mqK6jz41MmxLsZIgokpJLYJVUVgIKMn7+XYQKmyo1S4SAlSEglsRyHjYevmkObLO58j7aQzt2LJzGlJDfeTRFRICGV5K6ZV4FSmEVAulMAaCaQ6eDy2eVSaTNFyLeY5PIyndxVVUq3LEcAoEM3uGVCHuXFsngzVUhIJbkMh42LZ5SA3Ua6T/Qd+eufc0IhlfmZcW2LiB4JqRQwZ3IJ9yysoF1P795Ur2Hy0ZJszl8wKd5NEVEkIZUCcl02Tj2xhGynbWRMJk35NYOzpo3jhMKjHxsvkpOEVIqYO7mYSwpc9KbzCnS/zgVzZNlBqpGQShGVeRmcOaucUJou7vQbJhRmccZk2aeXaiSkUsh/XTQbVDXtBtBNoCeo8+r18+LdFBEDElIpJFOFrywcT3sovXpTg4bJgoo8TpVqBylJQirF3HzKBDCVtCqINxAy+M+qUrIypDxwKpKQSjGzyvO5ZU4JnjTpTYVME7KcnDW1BKdNLudUJN9qisnNcPCVRSeA054WY1OduskvF1Ywa2JRvJsiYkRCKgWVF+fw2Ql5Kb+4UzOh2GVn3uRiMmWfXsqSbzYFVRRkcd6JxaCk9thUj2lyfr6LuZOK490UEUMSUilIBc6uquTiAhfeFK6OoAV1Tp9ZRnmuK95NETEkIZWiZpTmcsmcCnwpWh3BMAFF4asXzop3U0SMSUilsEvmjYdAas7ytWkGn51XQbZdTvxMdRJSKWxBZT4zJhXSl2ID6CaAZvB5qWGeFiSkUtyfL5/FUIr1pto1g4umFDF3gqwwTwcSUilu3sRCLp82jo4U6U0ZgKEo/L9zp1CQ5Yx3c4QFJKRSXIbTzn/MLUPTSYnlCH26yZLyXCaMy4t3U4RFJKRSnF1VWDhlHBeXZ9OfAkvQ/YbJpScUUFmUHe+mCItISKWBqWX53Di7jCHTTOreVMA0mZ7tYOGMMlw2mdVLFxJSacCmwEnTyzg510UgiSt3dusm155YxOJppfFuirCQhFSamDu+gDPKc+hJ5ke+gM7Zcyrj3QphMQmpNJFpV7n+jClJu7hTNwGHnfNnlMW7KcJiElJp5KKZZZCfSTAJ9/O1BzTuPncKuU5bvJsiLCYhlWb+eMFUupKsNxUyTcjN4ItnnRDvpog4kJBKM0tml0F+xsjpKkmiUzO4s6qErAxZvJmOJKTSTEl+Fo+dNYmeJKmOYJiAauOS6aVkOeRRLx1JSKUZh6pw6oklZOVmEEyC5QhtusEXpxUyU8oDpy0JqTQ0qSSP70wvoivBz2Q3TMCmcsWcCsrzMuLdHBEnElJpKD/DztkzyqjIsBNK4JzymSYX5zmZIb2otCYhlabOmFHGkspcOhN4AN2nGyycVMj00tx4N0XEkYRUmspz2Tl9Zhkk8vl8wzqfXjxNLtI0J99/Grv+lEmAQiJ2pvp0k/nTiplXLiVZ0p2EVBorynDw/bMm05aAvamhoM6dp02MdzNEApCQSnO3LjoBXI6EOu142DApKM7ivGkl8W6KSAASUmmuJD+TL88YR7uWOL2p3pDBg4smMi4vM95NEQlAQirNZTvt/MfJ40G1JURvatgwmV2cxaJpZdhVKWwnJKQEMG18Id+eXUx7AhzW0Kub3DA5n9LCrHg3RSQICSnBuBzXSLVLuxrXmT7NBKfTxmnTSinIcMSvISKhSEgJAKomj+OCHCe+OO7n6zBMPl6WxTmzK+LWBpF4JKQEADNLc7isqhxfKI6PfCGdc+dNIN9lj18bRMKRkBL/9smzpoIZn/P5TADd5CNV0osS7yUhJf5tYn4GS2aU0B6HWlOekM5N8yuYXCDLDsR7Sb9avMfXT5/Iih0e3FkWXhqmCZrJHedNte4zRdJQTDMJKp8JywQ0nWe2t+APali1Ssk0oSDbxdXzKnHZpXMv3ktCSgiR0OS2JYRIaBJSQoiEJiElhEhoElJCiIQmISWESGgSUkKIhCYhJYRIaBJSQoiEJiElhEhoElJCiIQmISWESGgSUkKIhCYhJYRIaBJSQoiEJiElhEhoElJCiIQmISWESGgSUkKIhCYhJYRIaBJSQoiEJiElhEhoElJCiIQmISWESGgSUkKIhCYhJYRIaBJSQoiEJiElhEhoElJCiIQmISWESGgSUkKIhCYhJYRIaP8fgTH3Djih5jEAAAAASUVORK5CYII=;" vertex="1" parent="1">
          <mxGeometry x="150" y="470" width="37.87" height="38" as="geometry" />
        </mxCell>
        <mxCell id="8rjDxc2SI9L2Ybvgmmq--419" value="&lt;div&gt;Enriches alrerts and logs&lt;/div&gt;&lt;div&gt;&lt;br&gt;&lt;/div&gt;" style="text;strokeColor=none;align=center;fillColor=none;html=1;verticalAlign=middle;whiteSpace=wrap;rounded=0;" vertex="1" parent="1">
          <mxGeometry x="540" y="380" width="60" height="30" as="geometry" />
        </mxCell>
        <mxCell id="8rjDxc2SI9L2Ybvgmmq--420" value="&lt;div&gt;Raw Data&lt;/div&gt;&lt;div&gt;and logs&lt;/div&gt;" style="text;strokeColor=none;align=center;fillColor=none;html=1;verticalAlign=middle;whiteSpace=wrap;rounded=0;" vertex="1" parent="1">
          <mxGeometry x="220" y="384" width="60" height="30" as="geometry" />
        </mxCell>
        <mxCell id="8rjDxc2SI9L2Ybvgmmq--421" value="" style="shape=image;verticalLabelPosition=bottom;labelBackgroundColor=default;verticalAlign=top;aspect=fixed;imageAspect=0;image=data:image/png,iVBORw0KGgoAAAANSUhEUgAAASkAAAEqCAYAAABJDaYsAAAACXBIWXMAAAsTAAALEwEAmpwYAAAgAElEQVR4nO3dd4BcZb3/8fc507bXbE0jpG8ahBYgdKQEBKSpqFcEr/VauSIXy08R9IIioqKCCIqgNAkSEhMICSEkkJCe7G42yZZkd2e2t5ndnXLK749NvJSQ7MzOnGnf1x/+EZyZJ5kzn/Ocp3wfxTRNEyGESFBqvBsghBDHIiElhEhoElJCiIQmISWESGgSUkKIhCYhJYRIaBJSQoiEJiElhEhoElJCiIQmISWESGgSUkKIhCYhJYRIaBJSQoiEJiElhEhoElJCiIQmISWESGgSUkKIhCYhJYRIaBJSQoiEJiElhEhoElJCiIQmISWESGgSUkKIhCYhJYRIaBJSQoiEJiElhEhoElJCiIQmISWESGgSUkKIhCYhJYRIaBJSQoiEJiFlodV17fFugohQS98wQ0Et3s1ISxJSFunza/xg6U72tA3EuykiAq/tbOafuz3xbkZakpCySEOnl14Tnt/UGO+miDA19wyyqq6dn7zdFO+mpCUJKYt4ur3UBXVW1nWw41BPvJsjRkk3YWtDB38/NEBtUx99AXnks5qElAV0wNPlg5DBpoEgq3Y04wvq8W6WGAV/UOOxHR5UFcBke3NvvJuUdiSkLHCoy8eyA904VRhnV7hjTwf73XKxJ4P1+ztYdqCbcpsKTpVNBzrj3aS0IyFlgY5eHy95fBSpKk5FgcEAy3e1MiS9qYSmmXD58loKnLaRP7CpHPT0EdDN+DYszUhIxVjIMKn1DEBIR1VG/qzcofKDza3saJaxqUT2+v4O6B4kyzbyxRWosKNriGp3X5xbll4kpGIsENJ5vbkfDl/oAKqigGLy0zca4tgycSwm8OqOQ+Cy/fvPMhWFt31B6lvk5mIlCakY8wdC/KWhh7J3hRRApV1l+W4Pbzd1x6ll4lherXbzSF0XJbb/+4koALrJ7pZe+oZDcWtbupGQirHd7n4YDGJTlA/+xxwHD6+pY0CmtRNKvz/EhloPfQEdx/u+tmybwtudw3T7/PFpXBqSkIqxP25tBvvR/5lLVJU1Hi/bGrssbpU4lpZOL39t6KPI9sEbS46i8Gr3EF4JKctISMVQ0IS/72mn/ENCyqHAIb/G2ho3/X7pTSWCoG6yem87jf3DZKgfDCmbAgyHqGsfQDNlls8KElIxtLmp5z2zekdTYVO5a6uHt/a6kUs+/vZ5+vjmmnrKHbYP/f/k2BXu29KKT8alLCEhFUO7DnWD88MvdgBFAVR4bHsrPr9c9PH2x80HQeWYN5Zcm8q21gHa+oasa1gak5CKoYbWvvcsPfgwFXaV5+p7eLtexqbiqXs4xK+3uyk7Ri8KDs/yYbK+UWZmrSAhFSP13YPUdvrIOtYt+TAFyFMVLllejYxMxc9TG+pBM0ZzX8FhV3l+n9xUrCAhFSM7GzpY0esn72hLD44ix6ZA1xBPv3Mwxi0TR1Pb7uX5HS3kOkf3kxhnU3mlrhNNBhJjTkIqBoY1g4PtA6AZxxzb+IAMO6t2tNA9GIxZ28TR7WroYL0vRPYovzBFAQyDN2TDccxJSMVAl9fPto7BsP91y1SFJ1sHWLOnRWb6LNTaO8SKmjYwjPC+MoeNN2paY9UscZiEVAz4BgOs6BxiXFjdqMNj7LrBP/e04ZaZI0sYwNaGTp5o6KPCFt7PQbEp7G/tp0eWIsSUhFSUmcDBzgF6+v0jZVnCVGFXeaqxl631HdKbssDAUJCfvH2QTJtCuN9WkQo7vUH2evpj0jYxQkIqyoYCGi/v6zr2QptjUIBcVeG7bzTi7pXeVKy909jFlpYBCkYzpfc+DkWhelijvdsbg5aJIySkomxgKMhDdZ2UfshWmNHItSns7RjkhZ0tUWyZeD8duGRFLXkONexeFBz+8WgGje0DDGlGdBsn/k1CKsp2e/pgMIg9so7Uv41zqXx9fSNBeeaLmbX7O6DDN7L8I0JZqsKKg314egej2DLxbhJSUfZ0dTscZ8XyaDgVBYaC3LeyOgqtEu+nm7D0rQbIsI/pffJtCq+1+mhul3GpWJGQirLH67sZN4Y787vlOG2srW2nrl3GPKJt3V4PK5r7GRfmjN77KQCKydbWfvzyyBcTElJRdKjPD91DOCMcNH+/HFVhTX+AzfvakMs/evr9IdbVuGka1nBG4avKsKm8cqiPYEg2NcWChFQUvVLtHtWG4tFSgSxMHt3WSmO7HM8eLW09g/yxvpfiKH1XBarCKy0D+IMSUrEgIRUlAcNk817PcUuzhKtAVXijzcsL25oJyOPEmPlDOs9tPYSn348rSj1eVQECIZZVt0Xl/cR7SUhFSVOXj6aBADnR60j92ziXjdt3emjrl3VTY1XfPsAPNrccs6hdJPKcNu54pzmq7ylGSEhFSXOXlx1DGlkRrDI/HqeigC/A7984EPX3TjePvnNoZI9elL+mbJtKV0s/HUOyOTzaJKSipLPbR2dAi+aQ1HuUO1TufauZA93Sm4pUX0DnV1tbjlvULhLK4f/ZerA36u+d7iSkoqDd62dDUw+YZkQrl0dDBXAoPL5+f4w+IfX9YlU1GGbMbiQ4bWypb4/Rm6cvCakoaOvx8VDzACUxu/pHFDhUVu/rZNtBKVsbrroOL5sOdJLjiOElryo0tQ3gC+qx+4w0JCE1RoYJTR1e8AVxxGA86t2yFIXN3gArdzTjk+nusOxq6GT1QJCcGH5HRSps7R6mulUe+aJJQmqM/CGdDc39EVc9CFeRqvCHui5au32WfF4qaOkd4oU9npgMmL+bS1HY6QvR0NITuw9JQxJSYxQIadxf3xO1hYHHk6EqNPf7eWxjI4PyWHFcumnyZq2Hp+t7qRzjFpjjUQBMk+2t/XRJCeiokZAao9beQYze6G2FGY0Kp437trSyu1nu2MfjHQ7xyE4PGbEci3qXPJvCW51D9Mox7FEjITVGz+3yAMRsVu9oFAC7wj3r6i381OS0saGLtS19FFrU081SFN7sHsYrIRU1ElJjdNe2Vkosuku/W4Vd5eW6Tra1SomQY7liRS359siK2kVCVYCgxo7WPkKGFAOLBgmpMajt8ELPEA4LH/WOUABcKve/vEumvD/E0t1u6PSN+piqaClwqHx3SyteWX0eFRJSY7D1YE/UNxSHo0RVWds1xKYDHXFrQ6Ly6wZrdraMuahdJDJVha4OH4d6ZAY2GiSkxmBfSw+MoZb5WDkU8Pg1Xq/x0CfHKr3Hpn3trDzUF7UChOFQAFRY1yCLbqNBQipC3UMhGtoGUOLwqPduZTaVu3e3s7upK67tSCT9fo21NR4ODIUiOlYsGrLsNv6+T76TaJCQitCWhg6Wdg1TEueQsh0+7vtnGxoZkN4UAI1tffy4rouSsZ6GMQb5NoVNB7oYDEkNsLGSkIqAbsIhTx9DAX3Mp8JEQ4Vd5V8NPWyV3hT+kM6r1R4YjP02pWM58snr9suG47GSkIpAly/Ang6ftYujjkEB8uwqF75UTSDNp733tw9w++YWyuKwLOQDnDberPbEuxVJLwG+yeTTP+hnQ+cwBXF+1Hu3HJsCXUOsTPMfxZ+2NIOmY4tjL+oIu03hQPsA7b5AvJuS1CSkItDdN8jWrkEyEyikAMi089yGAwz403NsqnsoyINvNlERx2Uh71agwDZfiL0eWXA7FhJSYfJrOm80xrbAXaTKVYWn2gZ5eXtzWh6B9fDrdeC0bnX58TgUhfphjS6pWDEmElJhGhwO8WBNB4VxXB/1YVQF0A3+VdOGpy+9ygzv6/Cydm9HbIvahUkB0A3qPP14A1L/K1KJ840miYM9g3g6fIn3qHdYuU3lyYN97E+zwms1TZ2s7g+Qk2DfS75NYenBfjy9g/FuStKSkArTizXtEOO6RGOhKlAAXPByLe7e9OhN1Xd4+cM7zThMM+Eu6GxVYUu7j4Nt/aT3vGvkEu07TXhPHegiP4EeKY4my6ZA7zD/2NkS76bEnG6abKvvYFWrl5JEvXmosKmlH39INoJHIkG/1cQ0ENRpaO0nK8EeKY6mJMPG19c3Mqyl9v17yK/x8A4PrkRYVfshcuwq/zrUR0iTkIqEhFQY1u3vACPxZvWOxqEoMBjkrxtT+wisjQ2dvNbcR1Gi9qKAHEVho8fLgJRuiUjifrMJ6LUdh8CVGGtwRiPXZeOJTYeobffGuykxETLhsr/toDSBlh0cjaoAms6zu9zxbkpSkpAapZZ+P4e6ra1lPlY5qsIGX4jN+zwpuW5qVbUbQhr2BFhdfjxFThu3vdMc72YkJQmpUWrq9LJ3SCMv8X8P/6YATtPkmZ1uGjsG4t2cqAqZsHpnS9L0bDNUBdp9tAxI7fNwWV+2MEl19fioHdaoSKKeFECxTeFfHUM88GodcyYWoiRBr+N4VAXcfcOsauqjNIHHoj7AobLlYA8T5lXGuyVJRUJqFPr9Gjube0E3UNQk+lEw0puqtCk8tLcDqlOobIiqUGpXE6JUzqjZVbbXd3CNhFRYJKRGwdPjY9mhPgriUIo2Wirtqnzb8aYqNLYN0OvXKIxD7fVklVzdgjhxd/vY2jWcsFthRHIYp8LbvX72yKGuYZGQOg6/Zhw+2y451keJxOVQFPYPhWhslZAKh4TUcQSCGs809JCbgFUPRHI5cpPb2tpPh1cK4Y2W/PKOY2A4yBaPl+wUmBUT8VegKmzoHKJPjmEfNQmp41h7oBM0HRmOEtGQoShs7fXT6x2Od1OShoTUcXxvUzN5juRYMCgS35EtMpsO9RLQU3EfQPRJSB2Dxxugpaln5JADIaKk2K7yja2t+GTD8ahISB3D1kM9kOC1o0TycakKdA9T3ym1z0dDfoHHUNPcAzKrJ2LBrrC6Xg5zHQ35BX6IgGHS6O5P6FLBInnl2VX+XNcZ72YkBfkFfoitjV2s7/BRLP9CIgaybQr7m3rp9cspMscjP8EP0djaS/WQhlPWR4kYUABs8Gptep84PRoSUkfR5w+xv8ObNKWCRZJy2ti8ty3erUh4ElJH0T8Y5O3OoZFTV4SIEZeqUN/lo7lfVp8fi4TU+/QOB/ndun2sah2gQJaZixjKUxS2eEPUpdlBruGSkHoXE3jk9f3ct6mFSlkfJWLMoUCLX2PVjmaae+SE4w8jv8TDTGDp5kbu2NBERaYUJBPWqLAp/KK2k/9dWY0vIDN9RyMhddj6uja++Oo+Cm0KMqEnrKIAFXaV39V2cvsLO+Qo9qOQkGIkoM57difDAV2qbwrLHQmq3+9w84Nlu9FMiap3S/uQqnH3898r96KGNPJlNk/EiQKUZTq4Z2sLj7y+j+GQHMl+RFqHlMcb4PZ/7mRz5yDlsv1FxJlNgULT5Ccbm1i2oxldOlRAGodUwIDfrqpmefOAzOSJhJGpKgwFdT65opble+RYdgDFNNPvAbjfH+Lel3fzs21uKlw2WVUuEk7ANOke0ln/xUUsnloS7+bEVdp1IQKawbItTfxsdzvlTgkokZhcikJOpo1vPL+D7YfS+3SZtAuppzc38pnVByhRTKlbLhJanqqwbSjET1dUU+fpi3dz4iatQmp9Qzc3r6yjyDRxyGIokQQqVIXnWwf4n+U19KRpueG0GZN6q6GLG/62lb6QTr50oUSScQd1yM7Ae9v55LjSa0dEWvSk9nr6+fWre2kNSkCJ5FTptIFvmB8u25V2PaqUD6lOn58HXq3l6UN9VMpiTZHEyl12HtjdxqPr9jGQRhU9Uz6kvvLMdh450EOFU87OE8lNBcYp8N23D/HclibS5dS+lA2poG5w50u7eH5fJxU2RZYaiJTgVBTKFIXPv1TD/atr490cS6TkwHlAM/jrxnr+c80ByhjZbiBEKjEBz6DGmltOZfGMchwpPNaakj2pNbUe7n6zkXzTlIASKUkBCjJtfHbpHjYf6Ih3c2Iq5UJq/YEOvvFyNe0BjewUvrsIkaUqtA6HuGN5NduauuPdnJhJqce91v5hJtzzGnmZKjkSUCJNuDUDMp3su+V0ppfnx7s5UZcyPanGLh83P/kOuBQJKJFWKu0qruEgM57YwsEUrJWeEiHVPuDnodfqWN3uo8KeEn8lIcJSbFehf5ifrthDS99wvJsTVUn/iw7pBg+ureP+PW2Uq7LUQKSvCqeNR+q6+O3qWnqGQ/FuTtQkdUgZwJ3LdvOztw5RblelqoFIawpQble5d5ube1fspjdFts8kbUjpJjy/5SC/WN9EZaY9ef8iQkSRClS4bNy3uYXfr60jlALTYkk5u2cAa/e08pVlNXQFQmRI2RUh3sMEPEGDJ5fM4ONnTceexD+RpOyA1Lb0cscrdewfloAS4mgUoNih8B9r6nl1d0u8mzMmSdeTqm3to+rRTdg1jVKZyRPimPyGSY9msvz6eSw5eVK8mxORpPqVd3gDXPX8TmwSUEKMSoaqUGhXuGJlHa/vbYt3cyKSNL/0Tl+Q+1ZWc6DdS5kElBCjlqkqZA2HuOD5Xezx9Me7OWFLil97QDd57u167t/VRrlL6kIJEa4CmwL+EP/vn7to6E6uVekJH1IBzeB3r9Xw1dfqKbMpid9gIRJUpUPlhZYBvvncNg50euPdnFFL+IHzlbtaufzpHZQ7ZbGmSDxdmkE4SybtQJFNwR7HWWl30OD2BWV87SNVTCjMils7Rivhj51wOVXItDMY0smV4lAigbj9OtfMGEeuw4bJ8e/1CiMD2dvdXg75/HELqgqnyn2bWiktyeO2C2bEpQ3hSPiQOn9WBSuuMVjyz2q8gRCVcRo0D5kmnZpBJIWlXQ6VItlXmDJGjkDXuGPxFH54eRWafvyLQlEUMh02/vzOQR7b301JnK4GzYSOoM5/nlLJx0+aEJc2hCvhH/eO2NHcy21Ld7Kmc9DyoAqZJlMLs7iyqpzxuS5Co7goYeTCDIZ0Vu5xs6x9kHIZU0t63YZJpt3G41fM5pqFo193ZAKrajxc/qdNlOe64jJ0oZnQYZrcv2giX7ioipwkOZwkaUIKoNrTz5ee28Gb7d6Rc8gsYgIe4L7TJvD1S+fiCvOxc3/7AL9ZvZff7O2kwq5KjypJ9ekmM3Kc3Hv5LM6rqsRlG90tJ2SYvLyjmZuW15CtG7ji8JinmybtQxp/vqqKa0+fQm6SBBSA7Uc/+tGP4t2I0SrNzeCUyny6un1s6h0m16LbkQLkAEv3d5Nr6MyoKCA7jC+5OMfF/ImFBHwB1rT0kyvrvJLOsG7gReXZGxZwYVUl9lFee4YJS7cd5Cer99Ed0C27Zt9NM0w6FJVHPzKNTy2eTlaSXX9J1ZM6Yn+Hl+8t3clzTb1UZlg3rGYAbbrJnSdVcNtlcynKcoT1+qBu8Nmnt/H0Tjfjshw4pUuV8EzAoxngsLPz5lOZP6k4rNc//nYjX3plL3bdpCAOAeU1TLxBg2euruKa06bgTMLJp6QMKYDOoRC/WrmHn77TQoXLjlU9aMOEtqDOVScW86tr5jFlXE5Yrw8aBo+/Wc+P32igL6RTKOsqEtaRgLpuUgF3XTmXqorR1w/XDJM/bqjnKy/soSTfhSMOX7NHN6jKdfHQVfM4b2aZ9Q2IkqQNKYCBoM7dL2zj5zWdlKuKpYOR7oDOuRPz+ftNp1KZnxnWawO6wfJtB/nOawfoGQ6RJUGVkNxBnc/NHMedl81hWmnuqF83HNJ5+u1GbnltP6UQlzIpbs2gLNfFC9fO56xppdY3IIqSOqQAuoeCPL62ju9sOEi502ZtUAV1Pjm1mB9fMYfpZXlhvTZkmGyu72Txo5soctnISMJueCpz+zVumFHCr687ifK8jFG/LqSbPLZ+P99d34ii6XG5AblDBmeVZvPLK+ZwxtQSyz8/2pI+pAC8fo1H1u3jv99ooNRhs+zO9e7HgbuvnMesivCCCuCt/e2c9dwuGApQ4bDJzF+cHVlH9MX55fzwsjlUFoTXS/7pK7V8b0MjRYws3LSaO6hzdlkOD127gAUTCi3//FhIiZA64vH1+7nllf0UqdZdICbgCY2ce1b92VOpiuDCONDh5fYXd7G0uU+WKMSRZkIH8KszJ/H5C2eR7Rj9DG5AM/jJyhruWVdPWbbT8pOzTcAT0PlqVQnfv+YkynNc1jYghlIqpACeeKuBz762n5ygTp6FV4pPNxmw23jnM6dw6pRxYb++qXuQX6+u5YEdHktnLMUIzTTpGNb569VVXHPaCeSEEVADwyEefWM/t21solyxdmwUDk/mhAzumF/K15fMpyI3dQIKkqAKQrg+tWgKS5fMoiDLQZ9uXf7m2BRsmsY3X9zFxv3taGF+9AnF2Xzvyvl8aX4Fbr8+ip1gIlqCh9cR/eWjs/jEmVPDCqihoM4f1tZx28YmShTiE1CawfdOqeS2K1IvoCAFe1Iw0vVducfNkn/sxK6blFrYo2rTTSZnOfjbDQtYNDX8WZXe4RB/fmMf317TQHGmLS6rk9NJn24ypBn849q5fHThZBxhpsyXnt7KwzXtlKpYvmFYN6E9oHP/uSfwhQtnkeNKzR54SobUEVta+rj5yXeoHgxRaeE8sM8wGfDr/OmqKm45e2rYrw/oJv/Y3Mhtr+1nKKTLsfEx4tYMTinI5MGr53J2mNP0A/4Qdy7bzUNbWijPclj+SOI3THoMeOzSGXz67GlxWYdllZQOKYCth3r44bI9rGjzWjoobZjQNqyx/KaTOb+qgqwwHiGOWLGjmSteqiZHMywdX0sH7pDB9IIMnrp+AaedEN4YYpcvwK9W1XDPtlYqnNbPyA4YJn6nnd8uPoEvnpf4pVbGKuVDCqDG3cevVtXwx/peKh3W3fMCpkm3qvLXi6dz/elTyAhzz5QJrK/1cMVLNfh8/riVqUk17pDOFePzuWtJFQsnh7fNpWcwwM+X7+F/qzsoU7B8Fq9XNynMtPPw5bO5dN54HKPc5JzM0iKkAPZ1ePncM9vY6PFS4bLu7jdomLhsKj88ZwpfOn9mRBf1hgMdfOGlPdT0DFsasqnmyDT9ZRPy+eXH5jM7jG0uACHg809s5om6Tsod1leK7dBNNKeNZVfPZcncStQ0Ga9Mm5CCkYv0qkfe5OXmAcpsimV3wZA5stfwK2dM5FcfOynswVmAhu4h7v7nDh5v6KXCIWupwmWa4AnqfGdBOXdctYCizPA2h3d4/dz65Du8fKifigzrH/HcusnUDDvPfvYMFo4PL1yTXVKVahkrBbhweikFgQDLPF6ysGZNi02BXKeNNY29qMEQ88cXkOkMbyamMMvBadNK0ft8rG71km1TLdtUneyOTNPfdep4vrlkPsVhVq841O3j3hXV/LWplwqntTeIkePSdT4xKZ9fXruAUyamxirycKRVSAHkuOzMnVhIpj/I8tYBsi0s65vttLG8pR/XcIB5EwrJCjOocl12TppcTKEe4iW3lyysX5eTbHTTpF2He86YyNcumRN2eZ3mviF+vqKa39R0Wt6DNQGPbvK5qUXcuWROymxzCVdaPe69W1A3uOdfNdy19gCluS7L9vtpJnQYJrfOGMcvrz+ZvIzwfjQA3oDG71+r5btvNFGSYcMhXaqjCpkmnQGD339kGjefM52MMGdYe/0a1/1hPWt7hqmwWVuj3gQ8fp1Lxufx2GdOY3yYlTZSSdqG1BH3v1bH/2xoJEM3LKuaaABtAQ2Kc+j60pkUZ49+l/27Pbf1EDe+tIcsiEtBtUTmNUy8KDx9ZRU3njY57IA50Only89uZ7XHa3kPSjNNOjST/6wq47efPDXtiyOm/VTRty6cyaMXT6c8w0G/YU1eq0Clyw49g3zuyS00dfkiep8bTpnEsx+dw9QcJ24tgmNsUlSHblKa5eDJJbP4eAQBtbetnx+/uJPVHi+VFgdU0DTpUBR+cvoEfnHtgrQPKJCeFDCyg33lnlZuXVaNqRnWVlDQTT41MZ/vXTGH2ZUFEb3Hm/va+emqWlZ2WH+STqJxawYL8zO49/LZXFBVgS3MR+Fqdz/3LNvF31u9lj/i6Sa0GyYPnjuFzy2eRm4EQwGpSELqMAN4pcbD5X/ZQk6GjTwrg0ozuKQ8lwevP4lZYRbPO2LroV5ufHYbDb3+mM5AmYw8joR70aiMLPmIZbs8mkFFjpO/X7uAc6eXhv1ZjX3D3PTnt3m7a8jyR7yACd39AR68eg5fPmdqWizSHC0JqffZ2NDFV5/bzo6hEBUWzvx16iah/iDbbz+fk8aH36MCGNJNrvnDel5t91GmRn8dmAkEgUKXPazHEAXw6iaDQR1nDILqSI/01BwHz3x+MScWhT/IvK25hxv/+g71w5rlvdE23aTYofKry2dz06mTLf3sZCAhdRTbDvZw9/I9LPV4Lb1gvYbJtDwXD145h7NmlIX9qALQ2j/EY2v38cNt7qjvzG/TTT4+KZ+vnB/efjEFGA5p/PyVvbzRM0xRFHupI+uIDL44o5hvXT6HmWHUIj9ic2MXd62oYXm7j0qL97m4dZOLCjO57eIZXDZvvCzSPQoJqQ9R09LL7S9Xs7yl39KtKG7N4JzCDH5waRUXzamIaGajdzDA71/fx/c2N0e1CJvbF2LdFxdxboSF/d/c1845j78TtRXbRx7xvjWnjG98ZBaTi8M7uQfgzfpO7v5XNavaBi3fctSnm1TmOHnsmnmcPaNMZrE+hITUMbR5/VTc9zoYmqW73TsMk/EOG7+4sorrT5oY0XuEdIPfvnGAb79UQ1G+k4wx9qjcfp1PzyvnrzedOqb3ufWZbTy2o3XM1UcNoG1I46bZJfz2xoUUZjnDfo9trf185PG36Qnqlvag/n2WX9Ck4fbzOaE4R3pQxyDhfQzluRl0/8+F3DK7FI9mYlWhz1JVwavp3PDUdv6yqZGQEf7yAodN5VsXzOCJT55MicuOW498iUKHbrCoMpffXDMv4vc44r4r5nDVCYVjWjLhN03adJPvnjmJp25eFHZAmcDq2jbO/8smvBYHlAF4NJPrJuSz97bzmCIBdVxpty0mXJkOG4smF2EbCrCqzWvZNhq7oukaA28AABM+SURBVJDhUPnbgW6mu+xML8uLaMZnwfgCZhZl0uLpZ/ewRm6YPSrNBK+q8odLZjB3QvGY9wtmOe3MGpfFa/s66Q/pYa+WHzRMVIeN+xZP4duXVI36uPMjDBNe3+vh9uU1NA8GKbNwFs1kZFzv1hnF/Oya+Zw4Lvzxs3QkITUKORkOTp5chCsQYkVDD7kRFLCLhE1RsJkmqw71UmjqLJxcHFF5jhNKcplfmceO+m72DoVGvbLeZGTdzs9OqeDGRVNxRWkSoTAnA7s/yIsH+8gJI/SDpsmgqvDwJTO56cwTyYzge1i2u4Xb/7WX3d4A5RZP83uGNf5rfgU/vmIulYXZln52MpPHvVEqznbx/Svn8fmF43EPhghZ9OiXpSoQ0vmvdY3c/a/qiN7DpsApk4t59ubTIdOFO6gzmoetIcNkXpaDS0+eHNX62Rl2lU8vnsYnJuWPjM2MwqBh0tUf5Mmr5vKJM6ZEFFCv7Wvn6hf3sM8boNzCRzzNHDls9CMzSrjn6vmUpfE+vEhISIXBqSo88vFTePSjVXQqI0sGrJChKpQp8OPXG7h96Q78mh7R+0wuzqH7m+fymRnjaNPNYwatCfQHDb57wTROjkF5kKIsJ3dcOQ80E+0YczcmI9P05ZkONnxtMTecPDHs2UoTeHF7Mxc/uY183aDYwoDymyY9wE/PO5EVnzsjog3l6U4e98KkALMq8zkpx8HGg734NMOSKgSqAjlOG6vcXoz+IRZMDL/UC4yMsS2eVkJ+UONld/+H1tTyaAaXTC7k3qvnj/pxrG0gwIA/OOrtHOW5Lia5FP6+v5ucD9mC4tEMPj4+l3uvmseZJ4Z/ZLgBvLCliS+/UodNNyw91CJgmvgUhT9cNI3PLZ5Gpt2aYYJUIyEVAYdNZWZlAVNzXTy+s40sm2JJKVcFyFIUVnq8ZA0OM2N8IbkRPIZlO+0smFxEpQrP7+0k533LKzTTZFBVeepj85lQmDWq9wzoJr9bXc2e1n7Onj76dVTTyvLobO/njY5Bct/Xw3FrBueX5/K/V80Luxb5Ec9ubuKzr+xD92sfeP9YMkzoDBr8/ao5XHfqFLKdElCRknVSY2AC62o9XPDEVlwO1bLHCMMcmSVaMiGPZV9cHPEzu2aY/GVjPZ//Zw25WXZyVeVwHSONp66cxY1nThv17NmG/R1c9cx2MhSFp6+fzzkzy0fdji1N3Zz59DYyh0cG9Q2gLahDloueb50X0RoogH9sb+b6F3ZTqEKmhT2oAcPE59N45hPzueG0E2SJwRjJmNQYKMD5syt489bTOaMoE7dFC6lUBSrsCisO9nLub9axv8Mb0fvYVYVbF09jxX+cwqwcJ27dxKMZfG5WCRfOmzjqgGro8vHLNfvoCWi4/SF+uXY/B7sHR92OU08o5sXLZuFVVYaNkTVQX5pbTts3zokooAKazu/X7eP6F3YzzmZtQLk1g9n5Gbz55UXcKAEVFfK4FwWTirI5qTyX2pY+9ngDlhTPU4Bcu0qNN0Cw28u0sjzG5UZWPG96WR7zy3LY2dyLVzf4+aWzmDPKTc5B3eCJ9ft5cFcblU4bOarClj4/J+XamTOxCNso/y3KC7MJdg2wttXLD04bz52Xz6EkJ/y/z3BI58V3mrhlTT3jMHFaHFAXlmbzwEfnsCjCrUPig+RxL0pMoLHTy9Q/b4b+YSotWkt1ZIvF1RW5/OTqBcyL8CQRAzjg6ePtxm4+uejEUZ9os+FAJ4uf2kqpafx7M3PINOlEYd2nTuHcMManWnqHWLGzmetPn0JRhI94D7xay7c3HqTYMHBZGVChkcfTfbeewfQIy+2Io5OQirLdrb1c9/xO9nf4KHfaLHuedmsGp+a5+NNnzmB+eeQrmQO6gWuUixx9IYNZD6yh2xek6H3jce2awaySHPZ8/bywPj+oGzgjWGSpmfDEhgPcurKOErtiWd33kVLQOrPLc3nxhpOYEeZZfuL4ZEwqyuaNL2T95xbxhdkltOnmqBZNRkOlXWWLN8BH/rSR9Qc6In6f0QYUwP2v1NLaO/yBgAIos6tUt/Zz14o9YX1+JAHlD+k8srqGW1fspcyuWhtQmsFX5pWx5uYzJKBiREIqBsryMvjBlfP5n5MraRvSwq5iGalKm0pXQOerS3fxSrU7pp+7bm8bz+xqpcj14Y+1RZl2nt3pZlNDV8zaMRTS+c3qWr66vokyp2rZga8m0Das8ZPTJvD9K+ZRnhfZeKA4PgmpGJlQkMltl87hawsr8QQNy4Kq3KZQ7Q3w9ZdrWLrtUEw+o61/mL+81UjtUOiYJWAyFIXqYY3nNjfR5QtEvR1DmsHDq2u5feOhw5VILSr5bI4cN/Xfp47n65fOoUICKqYkpGKoOMvBjz46jx+cNh7PYAjNoqQqt6m0DAW57qVqlu5ojup7Gya8Wu3m8YYeykex4bhcVbh/Tzsrd7dEvdTNw6tr+fb6JsptWNaDCpgmnmGNhy6ayvevnEdeFPc0iqOTgXML+HWDv22s59Y1Byg2TVwW3fH9hkmPDo9dNoNPLToRZxSqGKyta+PCx96hLNM+6mAYme1TqfnCoohOxHm/Ll+A/11Rzf3bW6nIsFu2FmnIMLE7VB68aDrXnX4iLotLDacr6UlZIMOm8qmzpvH3j0yn21DQLNyYPM4Ot7yyj6c2HmA4wo3JRwyGDD65Yi+5LltYPReHoqDoOp9ZupvhMZ4P2O4N8MS6Ou7f5bE0oIYNkz4UHl0ym5vOnCoBZSEJKYu4bAo3nDWNZ66YSYdmErQoqJyKQokCt6xt4Leraog0pkzgyfX7aO/wRbQHrsKusvVQLy+OYZzMb5j85KVd3PZWM+V2646cGtBNeh12Xr1hHlculNNcrCYhZSEbcO1pU3jxurl0qQrdYyjpGw6HqlBmmty+/iC/X7OXYAT5uOVgN7/a3EyhK/JLJifDzh82NlLtGQj7tV1DIX724g4eqm6nwqFG7XCJ43FrBj6XnX9dPYeL5k5AtglbT0LKYnZV4eqFk1n3iZOZnZdp2fHoNgUqMm187ZX9/PC5rfQOh0b9Wnf/MH9+fR97fUEyxzCelqcqvNE5yB9fq6VrcPSzfe1ePz/95w7ueqeVCpd1B2K4NYNLy3LYefPpctxUHElIxcm5M8v54w0LKMpxWRZUClCeYefePe08+cY+fEHtuK8ZDOo88eYBfre/h4ooHPlU7rDxYH0Py7Y0ERjF37tnKMgDK2t4YE971I7CGg13QOeyilweuGEh8yM8rFVEh8zuxdnm+i7+e3k16zt8lp37ppsj21buO3Mi1585jSlFR68ZdaBrkGWb6vn25paont8XMk06TfjN2Sdw9RknMjH/g+uMDKDa08+LG+v54XaPZceeH9kLefOJxXzn0tlUVcoq8niTkEoAe9x9fHvpLl51D1BpUXE0w4Q2w2RJcRanTi5gwZRxnHD49JL6Ti876zvY0tzHqu5hym3RHwPSTZN2A64uyeLkSYWcdGIJk8flEAjp1LX1s7O+k82tA7zZ56fCro75lJrRMBk5LOGWmeP44dXzmVwkhyUkAgmpBHGwb5ifv7yLh2o7LTuI1AT6DZMh3YSQAUcG8m0qOFSybQp5MTzCywR6DJOAbkJIH+niKf/3+fmqQrZFI+S6Ce0BnZ8unsxXL64i7xjbfYS1JKQSSPdwiO88s4XHD4//WLTmM+1ppkkHCj9eUM7tV51EhqyBSigSUgmmtW+YJ9/Yxx2bWqhwWrcWKF2FTJNOHR6+4ERuOntaVI/uEtEhIZWAunwB7ltZzc+3tlLuslu2JijdHNk29Oil0/n0mdE7/FREl4RUAvv9mjq+suaApUXc0kWXbhJUFV782HyuXjA+3s0RxyC3jgT2+fNn8sjF0+hURg4oENHh1gxOznfx0rUSUMlAelIJTjNMntpYz82v11MY0i09+SQVuTWDs4uz+NmSKs6ZURbv5ohRkJBKAoZp8sK2Q9ywvJZSw8QuORURt2awMD+Dxz+5kPnjo390vIgNedxLAqqicP0pk7mzqpQOi7bQpJp23eSCkmxe+PzZElBJRkIqidx41lQIWVeKOFUY5shizV9fdxKTC6TUb7KRkEoiCyrzmT2xAJ9FJyWninbd4NopRUwulm0uyUhCKsncefpEvIHjVy8Q/8fUDD5RVUqWyxHvpogISEglmY/OrWReZR4D0psalS7d5IqJBZw2rdSywxpEdElIJZmcTCc/OnMyPtOUsanjMIEgcH1VKZPG5cS7OSJCElJJxqbA3ElFnFacxZAs8DymoGkyN8vBzEnFcqEnMfnuktD4ohw+NrmAflmOcEzdBiwszGDBRFlykMwkpJJQttPG+QsmMDvXSUDW4n44v8Ynzp1OlkNqQyUzCakkddqUEi6bXEC3DKAfVdA0IT+Dy2eXx7spYowkpJKUXYHFVZUQHNuBn6mqK6jz41MmxLsZIgokpJLYJVUVgIKMn7+XYQKmyo1S4SAlSEglsRyHjYevmkObLO58j7aQzt2LJzGlJDfeTRFRICGV5K6ZV4FSmEVAulMAaCaQ6eDy2eVSaTNFyLeY5PIyndxVVUq3LEcAoEM3uGVCHuXFsngzVUhIJbkMh42LZ5SA3Ua6T/Qd+eufc0IhlfmZcW2LiB4JqRQwZ3IJ9yysoF1P795Ur2Hy0ZJszl8wKd5NEVEkIZUCcl02Tj2xhGynbWRMJk35NYOzpo3jhMKjHxsvkpOEVIqYO7mYSwpc9KbzCnS/zgVzZNlBqpGQShGVeRmcOaucUJou7vQbJhRmccZk2aeXaiSkUsh/XTQbVDXtBtBNoCeo8+r18+LdFBEDElIpJFOFrywcT3sovXpTg4bJgoo8TpVqBylJQirF3HzKBDCVtCqINxAy+M+qUrIypDxwKpKQSjGzyvO5ZU4JnjTpTYVME7KcnDW1BKdNLudUJN9qisnNcPCVRSeA054WY1OduskvF1Ywa2JRvJsiYkRCKgWVF+fw2Ql5Kb+4UzOh2GVn3uRiMmWfXsqSbzYFVRRkcd6JxaCk9thUj2lyfr6LuZOK490UEUMSUilIBc6uquTiAhfeFK6OoAV1Tp9ZRnmuK95NETEkIZWiZpTmcsmcCnwpWh3BMAFF4asXzop3U0SMSUilsEvmjYdAas7ytWkGn51XQbZdTvxMdRJSKWxBZT4zJhXSl2ID6CaAZvB5qWGeFiSkUtyfL5/FUIr1pto1g4umFDF3gqwwTwcSUilu3sRCLp82jo4U6U0ZgKEo/L9zp1CQ5Yx3c4QFJKRSXIbTzn/MLUPTSYnlCH26yZLyXCaMy4t3U4RFJKRSnF1VWDhlHBeXZ9OfAkvQ/YbJpScUUFmUHe+mCItISKWBqWX53Di7jCHTTOreVMA0mZ7tYOGMMlw2mdVLFxJSacCmwEnTyzg510UgiSt3dusm155YxOJppfFuirCQhFSamDu+gDPKc+hJ5ke+gM7Zcyrj3QphMQmpNJFpV7n+jClJu7hTNwGHnfNnlMW7KcJiElJp5KKZZZCfSTAJ9/O1BzTuPncKuU5bvJsiLCYhlWb+eMFUupKsNxUyTcjN4ItnnRDvpog4kJBKM0tml0F+xsjpKkmiUzO4s6qErAxZvJmOJKTSTEl+Fo+dNYmeJKmOYJiAauOS6aVkOeRRLx1JSKUZh6pw6oklZOVmEEyC5QhtusEXpxUyU8oDpy0JqTQ0qSSP70wvoivBz2Q3TMCmcsWcCsrzMuLdHBEnElJpKD/DztkzyqjIsBNK4JzymSYX5zmZIb2otCYhlabOmFHGkspcOhN4AN2nGyycVMj00tx4N0XEkYRUmspz2Tl9Zhkk8vl8wzqfXjxNLtI0J99/Grv+lEmAQiJ2pvp0k/nTiplXLiVZ0p2EVBorynDw/bMm05aAvamhoM6dp02MdzNEApCQSnO3LjoBXI6EOu142DApKM7ivGkl8W6KSAASUmmuJD+TL88YR7uWOL2p3pDBg4smMi4vM95NEQlAQirNZTvt/MfJ40G1JURvatgwmV2cxaJpZdhVKWwnJKQEMG18Id+eXUx7AhzW0Kub3DA5n9LCrHg3RSQICSnBuBzXSLVLuxrXmT7NBKfTxmnTSinIcMSvISKhSEgJAKomj+OCHCe+OO7n6zBMPl6WxTmzK+LWBpF4JKQEADNLc7isqhxfKI6PfCGdc+dNIN9lj18bRMKRkBL/9smzpoIZn/P5TADd5CNV0osS7yUhJf5tYn4GS2aU0B6HWlOekM5N8yuYXCDLDsR7Sb9avMfXT5/Iih0e3FkWXhqmCZrJHedNte4zRdJQTDMJKp8JywQ0nWe2t+APali1Ssk0oSDbxdXzKnHZpXMv3ktCSgiR0OS2JYRIaBJSQoiEJiElhEhoElJCiIQmISWESGgSUkKIhCYhJYRIaBJSQoiEJiElhEhoElJCiIQmISWESGgSUkKIhCYhJYRIaBJSQoiEJiElhEhoElJCiIQmISWESGgSUkKIhCYhJYRIaBJSQoiEJiElhEhoElJCiIQmISWESGgSUkKIhCYhJYRIaBJSQoiEJiElhEhoElJCiIQmISWESGgSUkKIhCYhJYRIaP8fgTH3Djih5jEAAAAASUVORK5CYII=;" vertex="1" parent="1">
          <mxGeometry x="300" y="332" width="63.78" height="64" as="geometry" />
        </mxCell>
        <mxCell id="8rjDxc2SI9L2Ybvgmmq--422" value="&lt;div&gt;Wazuh&lt;/div&gt;&lt;div&gt;Manager&lt;/div&gt;" style="text;strokeColor=none;align=center;fillColor=none;html=1;verticalAlign=middle;whiteSpace=wrap;rounded=0;" vertex="1" parent="1">
          <mxGeometry x="301.89" y="300" width="60" height="30" as="geometry" />
        </mxCell>
        <mxCell id="8rjDxc2SI9L2Ybvgmmq--423" value="" style="shape=image;verticalLabelPosition=bottom;labelBackgroundColor=default;verticalAlign=top;aspect=fixed;imageAspect=0;image=data:image/png,iVBORw0KGgoAAAANSUhEUgAAAOEAAADhCAMAAAAJbSJIAAAArlBMVEX////+xRQAv7M0N0H+wgAAvK//7Mb/zA9GQj8xNUEaHy205eDF6+cow7f+wwD/6LktMDsVGin//vokKDQpLDj/57D+yzj/++//8dL+1Wr/89j+2n/+35L/9uDV1dejpKdBRE2QkZUSFyeAgYZpa3Hs7O1TVV3m5uf/7MD//fP+ySr+4Zv+zkv+0Fb+1nD+24L+5KbNzMw3Mi5iZGuZmp7BwsSur7JPUllydHk6PUenq/IrAAAELklEQVR4nO3b/VYaMRAF8ERXWmi7QkGsYoEVEetHW7Rg+/4v1qXaPzwgbDa3Z+6kcx/Ak9+ZfEzC6pzFYrFYLBaLxWKxWCwW544P/+aqcXr8RXo4/yCN7GWuT86OTj9KjwqZRuZfJs9LZ39weCw9MlTWhM/Osppnn6QHB8krwielHySA3CJ8Qt5on67bhX+QJ6fSg4zKTuHKeNuQHmZEKghXxr7eBVlJuDLefZYeas1UFK6MA52NQGXhqhe4kh5tnQQIvc/uFJYxSKiyjGHCsowD6RGHJlTos76yJidYWM5UXWdjuLAs45H0qENSR+izM+lhB6SWUNV+U0/os6/SA6+cmkKfnUiPvGrqCvVUsbbQZ9+kx14t9YU+u5EefKVECH2mokmNEfpMw604Sui9gttUnDC/kx7/7kTWUMFuEylUsBRjhfm1tGBXYoX8B3+0kH6exgvzvrRhe+KF7Fd+gNDn0oitgQipHzUQQp8xf8MBEebMJwZESF1EjJB5JWKEzNspSEh8JqJqyNvYgIQ+o/0kBSXMad/5UULevQYmzFi/KsLVkPWVHyaknaY4IetuCqwhaecGFN5KWzYHJ/SZtGVzkELOr1CAwpzzhR8p5PxpHyj0nA/8SGFG+WsiVEj5vg8VUv6ujxTm36U1mwIVUvZtUCHlBQoqpPxuASn0lA9uUKGX1mwKVEh5zTdhUChviCY0oQnlY0ITmlA+JjShCeVjQhOaUD4mNKEJ5WNCE5pQPiY0oQnlY0ITmlA+JjShCeVjQhOaUD4mNKEJ5WNCE5pQPo03yEhrNmV+/xaX+7U//27vQ2T23scKW01cOuvCg73IHMQL93FpMQqHyQtnyQunndSFLvkaunbywnHywgtgETmFRS914bKbuhDZ1HAKkQcip9C1m6kLgZspqXCE22pIhcDbBakQ2JmyCh9gC5FViFuIrMIZ7ERkFeKuF7TCH6jmm1YIm6a0QjcGNW68QtQNilc4BR36vEI3wRz6xMIhZq8hFrpHSBGZhQvISmQWYg4MaiGkiNRCSBG5hXPAdsotRFyEyYWz89SFrojuTtmFbj92s6EXzmPnKb3QTSIv+/xCl3wN3TBunioQulFU86ZB6C5ilqIKoRtHtDY6hDFvNjqEMS8aSoRuUXtD1SJ0y7pVVCN0o5pEPcK6REVCN6q1FjUJ3bIOUZXQzTvht0VdQjfrBXc3yoRuehn6rKFNWN6IA7dUfUK3aAXNVIXCcqaGNOIahavDv3oZdQrdrHoZlQrL1diuuKmqFTpXtCo9bigWuunkvMJy1CxcGXfXUbewNBat7vZCaheWWT52thUyAWF5dhTt12drEsIyw2Lc2TxdUxGWmS1/tlvdtetVQsJVZovioXne6nZ7vfYzlfK/1SMzHS6WxeTicvyrBDYTq6HFYrFYLBaLxWL5n/Ibw+Oy1Lu6LyMAAAAASUVORK5CYII=;" vertex="1" parent="1">
          <mxGeometry x="460" y="330" width="65" height="65" as="geometry" />
        </mxCell>
        <mxCell id="8rjDxc2SI9L2Ybvgmmq--424" value="" style="shape=image;verticalLabelPosition=bottom;labelBackgroundColor=default;verticalAlign=top;aspect=fixed;imageAspect=0;image=data:image/png,iVBORw0KGgoAAAANSUhEUgAAAOEAAADhCAMAAAAJbSJIAAABEVBMVEX////wvxo+vrAjHyAHpd4Bm4/XoikcFxlRTk/vuwBDs+MAlIfv+Pf8+PHUnAAnuqsAAAAAn9wAot0kDwD446vY2tsLAAAEquUkCQARh7T557j889vwvgDtuxzg8vrs9/xex7u1492I08rg8/HL6+f779D66sL44ab//vn33Jbyx0XzzFj00W7Wnx3bpyfntSD9+Ojiu2v0z2dRSEVHl7puweiPzuwdDAMRX38gN0RXWVsWc5moqqskGBQbV3FzdXYzNDYLmc23ubohKjAShLFovLN5z8S/5uLxxDP114Xw3bvqzpvt16vkwHr22ozaqTzmxonepwC23vKTlZeGyuuh1u/O6fee2tOFxb8hqp2PycPD+r+tAAAGA0lEQVR4nO2aa3vaRhBGkSAkcrAVbNKmoLYgAQaMW9zW6f3ecEmbNE3TUuf//5BKwhcuwpZ2591dkTlf7Q+c592d2dVsocAwDMMwDMMwDMMwDMMwTJ7ojRqdbr12HFGrdzuNUU/3T6Ki16j3hwPL2cQbDPv1Rr5FG7XhNFJxrGTCvzjOdFhr6P6hQjSOT6Lfv8VtxTPk5Dhnlt1ZaOelsLsi+vdhV/fPTkt3mC67hCzzINmI0hPQu5L0ZmYv1/og09pMwnMGdd0a2+j1txbNjEl6fRN7yP5MYnVuODqzfd1Ca4R+sstzFc8wxz6x38Kxr1vrmhrR/lvH8Wq61WKelw8+hQhGjlP9vaN3dlAulz9BKVrOTLPg89PTchmq6FlazzlxgAtgipYz1ObXuAxwwYcwRc/StBt/PyivAKs3YYzHOgTP1gSxip8p9xuVT9cFoYqeNVIr2NkIEK1oOR2Vgn8kC4IVFZ5wXm0TBCu+VCX4YrsgWFFRZ9wsoivg+qKqknqWUETVKZ4YIIg8wKlQTCEIPIZb+IV6a5FRpAgtN7e0iRWQBRXaNLY2+g2Q1QbY+rcc1RJBGsIOcKMMgtitaDmYY3gGvzJ4K1oWQjBNn1gGuxUBBXX9Rn8n2JZBv0wbWQWxV37Ah5vMfmXgOkXU0hcZN2EMap0iEszSCZeArFPMFxuRBCMAgs4AMXUTWqOYEDFzDIE6CgrR8zBDjD+FBYmLjTPEzPfT3ygSIOwYzhR04O7JCNKF6Exhj1BeiZYZwhA9Z4CbIu5LRUgRoudYL5HjNeFOQRCiF71uHPSx08PRgSx/JTyeTYU3PZnVOvDXUb19XZj48IthGIZhGIZhGAEekPH5F3tpOX/6+iNVgo8f3afiy6/eL6XiMKRaLZ3/q8Twu/eKZHyd0vBKtFp6qsDwm/t0hkeZBBdp/gM3fEQnWDz6ILNiqVoCb8jHpIbfZluml47YGCm3YfH7H0QMS9VzpOGPhNswc6lRovgTqeGRmCFUkXIbFotPfhYzLFXfoARJC41YMb1URHX/X4gNhYppzCHI8G/KUhoW07TntgRD0FakLaWi7SKmiun8D2gNRdtFHOIexJBYsPiruCEoRNpCEy5TCcNDRMeoUBs+ERcMARgSt0OJlh+BWKZmGSLuisQNX9YQ0BLJDcWPbTH0hqS3Q3nDah4Mf5My/DgPhhINEVFM2ZANEwwlBPOxD6VqKeAWvPv9cPfPNLt/LjXLEHG32P37oVl3fMgw0ajvNPTdsGDWtzbMB9Pd/15q0Ddv0GzGnLkFpJAW3oXZkzHzQ9ws35AZMGxA+i7M8Y14iwFM0IT3NIfV10hBA95E7UEOa0vofddWLYEDLOh+m4h/t6f1fekbNe9Ld/+NMMMwDMMwDMMw6qhoQ5Vh8FCeC1cMuzmeTwK44rN70tjiRJ7jFjbPykNZwQsJw0vNZgup+J+soqzgQtIHLlfZDCkMI8kxzLElF6JLZBg6+qgNeWFChAtH0H4MZEKkizBWbGJilCk2pIKR4wSiaEqEsaKPMGyLhijdC5MUxwjFZ4KKAMFoMyIUzYkwAqEoVk9BghjFuYAiKkLQQhXYijBBULXJfLTBCdo2QrBQySiIW6O2CzqgZuyKQME2RjDjLQMoCLwPv02vCKyjc5xghjM4UBByLr0hbc/ACUL6RHbFHAumU6S/MykUTKMI24RqBO8uNzhBcJG54Y6mAROEtolVbm39MEHoh+912hoEYUe1ZCoXW2JE+dnKxm3XJJdUlKCiIrpK0q0fJah0C94Q3Ft3BPnZ+DHpNtY6I0hQWRdMor0cI8bPVlxDN7iJESOoNcAFwWXfgPg19e3AZVrhUoUMKGxNJTSBtwBBV+Ux9G4qvks8CsWNtEWpzAkdw/xM84uZ2zSOrm3U+lxh0pQO0nWbmDk2FYEvFaRrI18GUdEeCwbpumPd55fUtMMks1mG/+7nRm9B0Bq7KS3D/xu3crA4EwhaftO9zTP6Y9PPqd01wWTuN+3EB7K+igeyyqgE7faktWDSbgdGdnSGYRiGYRiGYRiGYRiGYbbzP8i5YrPZUUWwAAAAAElFTkSuQmCC;" vertex="1" parent="1">
          <mxGeometry x="630" y="325" width="70" height="70" as="geometry" />
        </mxCell>
        <mxCell id="8rjDxc2SI9L2Ybvgmmq--426" value="" style="endArrow=classic;html=1;rounded=0;exitX=1.069;exitY=0.48;exitDx=0;exitDy=0;exitPerimeter=0;fontColor=light-dark(#0080ff, #ededed);labelBackgroundColor=#0000CC;fillColor=#dae8fc;strokeColor=#4284F3;strokeWidth=2;endSize=4;startSize=4;" edge="1" parent="1" source="8rjDxc2SI9L2Ybvgmmq--421" target="8rjDxc2SI9L2Ybvgmmq--423">
          <mxGeometry width="50" height="50" relative="1" as="geometry">
            <mxPoint x="440" y="400" as="sourcePoint" />
            <mxPoint x="450" y="360" as="targetPoint" />
          </mxGeometry>
        </mxCell>
        <mxCell id="8rjDxc2SI9L2Ybvgmmq--427" value="" style="endArrow=classic;html=1;rounded=0;exitX=1.069;exitY=0.48;exitDx=0;exitDy=0;exitPerimeter=0;fontColor=light-dark(#0080ff, #ededed);labelBackgroundColor=#0000CC;fillColor=#dae8fc;strokeColor=#4284F3;strokeWidth=2;endSize=4;startSize=4;" edge="1" parent="1">
          <mxGeometry width="50" height="50" relative="1" as="geometry">
            <mxPoint x="408" y="533" as="sourcePoint" />
            <mxPoint x="490" y="530" as="targetPoint" />
          </mxGeometry>
        </mxCell>
        <mxCell id="8rjDxc2SI9L2Ybvgmmq--428" value="&lt;div&gt;Processed&lt;/div&gt;&lt;div&gt;Security&lt;/div&gt;&lt;div&gt;Events&lt;/div&gt;" style="text;strokeColor=none;align=center;fillColor=none;html=1;verticalAlign=middle;whiteSpace=wrap;rounded=0;" vertex="1" parent="1">
          <mxGeometry x="380" y="370" width="60" height="30" as="geometry" />
        </mxCell>
        <mxCell id="8rjDxc2SI9L2Ybvgmmq--429" value="" style="shape=image;verticalLabelPosition=bottom;labelBackgroundColor=default;verticalAlign=top;aspect=fixed;imageAspect=0;image=data:image/png,iVBORw0KGgoAAAANSUhEUgAAAOEAAADhCAMAAAAJbSJIAAAA8FBMVEX////pR4s+vrA1NTU3pZXrXpfpRIlWxLjz8/MXFxfoMoL+9PhKrJ42o5M+wLLpQYg3rJvw+PYbno3xSI81JyroNYMvNDPzSJA1LzAjuar++vwcMywoNDA1Ky01MzOM1Mv86fDvhq74zdzVSIPkSYrzpsM4n5A8t6iw4Nr0+/pnyb3rWJTufKn50+D0sMnvirEqIiVAPD5HO0BQN0BlO0txP1J/PleNQF6cQmarQ228RXa5RXTcSYYXMytaQk7e8O17v7Shz8g5g3g4bWU3VVE3QT85k4aj3NXE6OM4Yls3S0g5d215zsQ5h3s3V1EWBQppXtryAAAFeklEQVR4nO3biVraQBSGYYWIiFrUomIRumhr98W6W+1qd9v7v5smJwGSkExmhplzjn3OdwV9nwl/QrAzM5IkSZIkSZIkSZIkSZIkSZIkSZIkSZL0X7e4O0fQs+eIwlYDv/bsHUzhLH6te3hAEmHrBSKQQth6iQkkELZfoQLxhe05XCC6sIE5oyRC1BmlEOLOKIEQeUbxhdgzii5En1FsIf6MYgvxZxRZSDCjuEKKGUUVtu8TAbGENDOKKCSaUUQh0YziCVsP6IAownWqGcUS0s0okpBwRnGElDOKI6ScURQh6YxiCGlnFEFIPKP+hdQzCvkUNhrEMwr5FJLPKORRSD+jkD8hgxmFvAk5zCjkS8hiRiFPQh4zCnkS8phRyI+QyYxCXoTrD6lZqXwI2cwo5EHIZ0Yh90JGMwq5FzKaUci5kNOMQq6FrGYUcizkNaOQWyGzGYWcCrnNKORUyG1GIZdCdjMKORTym1HInZDhjELOhBxnFHIlbLQZzijkSshyRqHF1u1U9kCWMwo1X795s7//9vLg8Oj45PRs5x1IG4ZApjMKNRfq9Y247bBer7d/cHx6tmt0olxnFIqE2SJqr7dxcHz+TlPJdkahSeEQGjrrh6c71Uq+MwqVChNmb+PofFeN5DujkFoYKy8uT3Y2S5GMZxSqFsZHuV+G5DyjkJZwiNydNLYR/6+kXbrC+HI9PMt9JHnPKGQgjJC9euYgmc8oZCYM2+4d7WwOn3mYzyhkLAwP8uLgbPNGzChkIYwu1reRkf2MQlbCxMh+RiFLYWS8fE/9j9fKWlgfLK99eEL9z9fIWtj5GgTLax+p//3V2Qo7n1aCsLXgO7WgKkth/zMAIyP3S9VO2P0yBEaXKu9jtBIOroJ0vI/RSth9lBGGx8j4xmEjjGY0F+NRtRAmM5ojLnG9Us2F4xm9GVeqsTA9ozfiSjUV5mY0t6nUmqJMhfkZzV6pwSq1ZzJDYcGMpoUrNX4fRjNh4YymgbUtdg84RsL+DxUwCGphW4+pSblMhOUzGh9h7RYQv1GbshkIVTMaAfcAGBLvUqMyGQj7qhkdA7kR9YVVMzoCMiNqCzu/lDMapIC8iLrCrsaM8iRqCrs/1TO6dytPZLOoesJBXXmAk0BG90U9YcWMrkwC+TzdaAkNZjRN5PGMqiPsm8xomsjim4aGUOdptCRqXVS1cGA6o6meUvNmNIQWM5q6ThncFiuFNjOaItIPapWwcz0NkMOgVgjVT6NB6Yym4i00fBot7DdnofHTKMePoko4qC9PDyS/8auE083ouHmuws61+tWhLpD4m1S5UP00qjWjLK7TUmH3T8WrQ5Mor9MyYffKwYyOD5Hw63CJ0NGMjol0v5+WCPtW33kV0d33i4XOZnR8iGTPp4XCkh+yR5kDa3TPp0VCpzM6OkSqsSkQDpzO6JjISOh2RkdCoiebSaHdq0MdIs0dY0JY8UO23crE0by0yQurZtTeR/V4mhN6mVHaQ8wKdX/Itj1Eik9iVqj8e6AQON0R0hxiRuhtRikPMS2s+nugqYEk98SU0OeMjqIU6v090JQRvFocCT3P6DD89xkjoe8ZTcL/njgUep/RYeg3jERY9TTqykfwJSoWosxoIsTeGhCizOgw7F++IyHSjCZhP9dEwooZdbcysRD5hU0oRJvRJORbYnPB6M8qXYT8Rbj518EP2YZC3Mu0eeHl1aEy3DVtrqEDkW/6qyqh+5WJhag3fZXQExD52VR5hp6AuN+DFcIpXx0qQr1flAv9rEwsxLxflAo9AnE/iGVCbysTRy/0DMT8IJadoVcg6h2xWOhvRhMh4pvh1WCpoHnfUf/RqSRJkiRJkiRJkiRJkiRJkiRJkiRJkiT57h+jWtlzE23u/gAAAABJRU5ErkJggg==;" vertex="1" parent="1">
          <mxGeometry x="630" y="180" width="70" height="70" as="geometry" />
        </mxCell>
        <mxCell id="8rjDxc2SI9L2Ybvgmmq--431" value="" style="endArrow=classic;html=1;rounded=0;fontColor=light-dark(#0080ff, #ededed);labelBackgroundColor=#0000CC;fillColor=#dae8fc;strokeColor=#4284F3;strokeWidth=2;endSize=4;startSize=4;entryX=0.043;entryY=0.511;entryDx=0;entryDy=0;entryPerimeter=0;exitX=0.978;exitY=0.472;exitDx=0;exitDy=0;exitPerimeter=0;" edge="1" parent="1" source="8rjDxc2SI9L2Ybvgmmq--423" target="8rjDxc2SI9L2Ybvgmmq--424">
          <mxGeometry width="50" height="50" relative="1" as="geometry">
            <mxPoint x="530" y="366" as="sourcePoint" />
            <mxPoint x="600" y="362.5" as="targetPoint" />
          </mxGeometry>
        </mxCell>
        <mxCell id="8rjDxc2SI9L2Ybvgmmq--432" value="" style="endArrow=classic;html=1;rounded=0;exitX=0.486;exitY=0.026;exitDx=0;exitDy=0;exitPerimeter=0;fontColor=light-dark(#0080ff, #ededed);labelBackgroundColor=#0000CC;fillColor=#dae8fc;strokeColor=#4284F3;strokeWidth=2;endSize=4;startSize=4;entryX=0.512;entryY=1.057;entryDx=0;entryDy=0;entryPerimeter=0;" edge="1" parent="1" source="8rjDxc2SI9L2Ybvgmmq--424" target="8rjDxc2SI9L2Ybvgmmq--429">
          <mxGeometry width="50" height="50" relative="1" as="geometry">
            <mxPoint x="650" y="323" as="sourcePoint" />
            <mxPoint x="732" y="320" as="targetPoint" />
          </mxGeometry>
        </mxCell>
        <mxCell id="8rjDxc2SI9L2Ybvgmmq--433" value="On-prem SOC Dashboard" style="text;strokeColor=none;align=center;fillColor=none;html=1;verticalAlign=middle;whiteSpace=wrap;rounded=0;" vertex="1" parent="1">
          <mxGeometry x="622.5" y="140" width="85" height="30" as="geometry" />
        </mxCell>
      </root>
    </mxGraphModel>
  </diagram>
</mxfile>
